<?xml version="1.0" standalone="no"?>
<!DOCTYPE svg PUBLIC "-//W3C//DTD SVG 20010904//EN"
 "http://www.w3.org/TR/2001/REC-SVG-20010904/DTD/svg10.dtd">
<svg version="1.0" xmlns="http://www.w3.org/2000/svg"
 width="1860.000000pt" height="2048.000000pt" viewBox="0 0 1860.000000 2048.000000"
 preserveAspectRatio="xMidYMid meet">

<g transform="translate(0.000000,2048.000000) scale(0.100000,-0.100000)"
fill="#000000" stroke="none">
<path d="M17398 20223 c-53 -60 -251 -444 -241 -469 14 -37 46 -8 97 86 l51
95 95 32 c52 17 107 32 121 32 25 1 27 -2 38 -76 6 -43 17 -112 25 -153 17
-87 22 -424 6 -464 -9 -24 -15 -26 -65 -26 -53 0 -56 -2 -53 -22 2 -16 16 -27
48 -39 55 -20 86 -9 119 44 19 31 21 50 21 181 0 150 4 163 39 132 9 -8 59
-19 115 -26 83 -10 101 -9 113 2 16 17 9 44 -15 53 -9 4 -70 9 -134 12 l-118
6 -1 61 c0 34 -4 81 -9 106 -34 180 -39 224 -27 232 19 14 168 -1 207 -20 33
-16 35 -19 33 -66 -1 -32 -9 -59 -23 -78 -40 -54 8 -84 49 -31 29 36 54 126
46 163 -21 96 -233 133 -440 77 -49 -13 -99 -28 -109 -32 -17 -7 -18 -5 -12
19 4 16 22 51 41 79 37 55 42 76 23 95 -16 16 -22 15 -40 -5z"/>
<path d="M17134 20071 c-72 -34 -222 -131 -248 -159 -29 -33 -14 -56 32 -48
84 14 76 22 83 -89 4 -55 14 -143 23 -195 8 -52 16 -122 16 -156 0 -66 21
-101 53 -88 15 5 16 20 11 113 -3 58 -10 133 -16 166 -19 116 -34 300 -26 317
5 10 33 33 62 52 65 41 102 88 83 105 -10 8 -29 3 -73 -18z"/>
<path d="M7518 19783 c34 -2 90 -2 125 0 34 2 6 3 -63 3 -69 0 -97 -1 -62 -3z"/>
<path d="M17341 19751 c-11 -11 -25 -39 -31 -63 -6 -24 -27 -94 -46 -157 -40
-127 -48 -194 -24 -198 26 -5 40 12 55 63 8 27 34 114 59 194 25 80 46 148 46
152 0 4 -9 12 -20 18 -15 8 -24 6 -39 -9z"/>
<path d="M7010 19675 c-414 -149 -859 -542 -1241 -1095 -162 -235 -179 -261
-178 -273 0 -7 6 -4 12 7 7 10 49 66 95 125 46 58 157 201 247 317 197 252
393 450 621 627 196 151 282 202 504 298 89 39 55 35 -60 -6z"/>
<path d="M8300 19647 c0 -2 18 -16 40 -31 74 -49 171 -144 263 -256 23 -29 22
-26 -5 15 -45 68 -203 225 -255 253 -24 13 -43 21 -43 19z"/>
<path d="M7593 19603 c9 -2 25 -2 35 0 9 3 1 5 -18 5 -19 0 -27 -2 -17 -5z"/>
<path d="M7678 19593 c7 -3 16 -2 19 1 4 3 -2 6 -13 5 -11 0 -14 -3 -6 -6z"/>
<path d="M7174 19559 c-158 -36 -308 -106 -458 -214 -246 -176 -462 -371 -639
-575 -50 -58 -150 -166 -222 -240 -170 -177 -321 -339 -340 -367 -17 -24 -185
-358 -185 -367 0 -3 -35 -86 -79 -183 -202 -457 -296 -712 -366 -993 -63 -250
-73 -301 -79 -425 l-5 -110 19 110 c74 412 270 982 508 1476 168 349 261 502
401 659 37 41 89 104 116 140 162 215 462 513 729 723 238 188 378 269 582
337 153 51 160 62 18 29z"/>
<path d="M7818 19563 c7 -3 16 -2 19 1 4 3 -2 6 -13 5 -11 0 -14 -3 -6 -6z"/>
<path d="M7882 19545 c5 -6 227 -118 243 -123 6 -2 1 4 -10 14 -35 29 -257
133 -233 109z"/>
<path d="M8145 19403 c6 -5 55 -50 110 -98 97 -85 98 -86 35 -21 -36 37 -85
81 -110 98 -25 17 -40 26 -35 21z"/>
<path d="M8360 19196 c0 -2 8 -10 18 -17 15 -13 16 -12 3 4 -13 16 -21 21 -21
13z"/>
<path d="M9610 19045 c0 -7 260 -306 348 -399 40 -44 89 -104 108 -134 33 -51
56 -81 188 -242 61 -75 151 -199 247 -339 36 -53 91 -134 123 -180 32 -47 78
-124 102 -173 24 -48 60 -113 80 -144 41 -65 94 -173 94 -193 0 -11 -6 -9 -22
6 -13 11 -58 41 -101 67 -88 54 -112 82 -157 184 -41 92 -64 98 -43 12 9 -34
13 -63 10 -66 -7 -7 -34 7 -132 71 -88 56 -113 71 -105 63 11 -13 136 -102
199 -142 97 -62 126 -126 240 -521 111 -386 174 -757 201 -1190 5 -77 14 -163
19 -191 9 -47 3 -266 -14 -484 -10 -118 -35 -288 -55 -370 -10 -41 -21 -93
-24 -115 -17 -105 -108 -365 -176 -503 -27 -56 -53 -102 -56 -102 -3 0 -29 16
-58 36 -46 32 -34 21 37 -37 20 -15 20 -16 -9 -68 -15 -29 -46 -73 -67 -97
-22 -25 -63 -98 -98 -176 -33 -73 -84 -166 -113 -208 -29 -41 -60 -90 -70
-108 -55 -106 -400 -534 -597 -739 -73 -76 -82 -83 -118 -83 -49 0 -71 8 -71
27 0 8 22 89 49 181 26 92 56 208 65 257 57 291 106 489 136 545 23 44 93 221
137 350 25 74 47 137 50 139 2 3 20 -11 41 -30 48 -45 142 -122 142 -116 0 2
-40 39 -90 81 -69 58 -90 82 -90 101 0 14 -4 25 -10 25 -5 0 -10 -5 -10 -11 0
-6 -9 -9 -20 -6 -18 5 -18 3 -6 -15 17 -23 13 -38 -38 -160 -20 -48 -36 -93
-36 -100 0 -22 -47 -111 -74 -142 -14 -16 -23 -33 -20 -37 7 -12 -15 -80 -32
-100 -8 -9 -25 -44 -39 -78 -13 -35 -53 -113 -87 -173 -35 -61 -79 -140 -98
-177 -33 -63 -80 -128 -241 -331 -73 -92 -244 -256 -347 -333 -35 -26 -62 -44
-60 -40 30 68 105 200 133 237 20 27 70 109 112 184 41 74 83 147 94 161 10
14 28 53 39 85 11 33 38 92 60 133 37 70 190 420 205 473 4 14 20 50 35 80 15
30 38 89 50 130 31 105 37 115 58 97 26 -21 124 -79 118 -69 -3 5 -33 27 -66
48 -71 46 -73 58 -30 144 34 67 34 67 87 76 33 5 44 2 74 -22 l34 -28 -32 35
-32 34 32 22 c18 12 44 27 58 33 19 9 29 23 36 55 l10 43 -33 -5 c-22 -4 -49
3 -88 20 -54 25 -56 27 -56 64 0 41 32 197 55 273 8 25 19 81 24 125 21 158
34 236 42 240 4 3 2 18 -4 35 -8 22 -8 57 1 138 7 59 12 129 12 155 0 37 4 47
16 47 14 0 14 2 3 16 -9 11 -14 56 -15 147 -1 73 -7 152 -13 177 -6 25 -11 74
-11 110 0 36 -7 107 -15 159 -8 52 -12 98 -9 102 10 16 172 -98 252 -178 81
-79 86 -74 15 15 -34 42 -146 137 -234 198 -45 31 -45 31 -67 135 -12 57 -22
116 -22 130 0 14 -9 59 -20 100 -11 41 -30 119 -41 174 -11 55 -34 147 -51
204 -16 57 -36 129 -43 160 -28 118 -143 491 -156 506 -22 23 -1 -85 47 -240
18 -60 36 -130 40 -155 4 -25 15 -66 25 -92 26 -66 97 -340 124 -478 13 -63
32 -151 43 -195 23 -90 33 -185 21 -185 -16 0 -117 48 -123 59 -4 6 -11 77
-17 157 -15 226 -88 566 -170 789 -16 44 -38 109 -48 145 -50 172 -126 338
-146 319 -3 -3 16 -61 41 -130 79 -215 156 -454 187 -584 58 -238 83 -393 94
-567 l6 -98 -24 0 c-13 0 -41 3 -61 6 -34 6 -38 10 -38 38 0 60 -107 479 -163
641 -37 108 -144 343 -225 495 -27 52 -53 105 -57 118 -6 20 -3 22 27 23 19 1
25 3 13 6 -11 2 -30 6 -42 9 -16 3 -52 49 -119 152 -53 81 -105 157 -116 169
-17 18 -19 30 -13 70 8 56 39 133 54 133 16 0 255 223 567 530 105 103 273
320 248 320 -9 0 -172 -169 -196 -204 -12 -17 -47 -58 -79 -91 -31 -33 -97
-102 -145 -153 -49 -52 -127 -126 -173 -165 -47 -40 -105 -93 -130 -119 -25
-26 -58 -50 -73 -54 l-28 -6 0 58 c0 69 9 88 35 78 14 -6 9 4 -15 34 -18 23
-41 42 -51 42 -10 0 -41 9 -69 20 -69 27 -74 25 -16 -8 27 -15 59 -39 70 -55
20 -27 20 -28 2 -135 -23 -135 -35 -165 -84 -199 -62 -44 -94 -100 -202 -356
-118 -281 -191 -505 -244 -752 -122 -567 -146 -734 -146 -1011 l-1 -169 -30
35 c-106 122 -225 399 -255 590 -8 52 -19 128 -25 168 -14 87 0 330 31 529 33
219 122 475 201 580 41 55 48 73 25 73 -16 0 -62 -50 -93 -101 -34 -56 -89
-213 -168 -483 -71 -245 -89 -296 -102 -296 -6 0 5 206 14 255 3 16 3 28 0 25
-13 -12 -98 -473 -103 -559 -7 -135 -8 -138 -46 -144 -67 -11 -102 -23 -106
-36 -4 -11 9 -13 67 -9 83 6 78 20 59 -155 -11 -95 -10 -119 5 -192 9 -46 35
-123 58 -172 22 -48 52 -114 66 -145 15 -32 28 -56 30 -54 4 4 -35 151 -67
251 -24 74 -44 315 -35 412 l7 71 36 -5 c105 -15 103 -13 136 -163 35 -155
122 -322 241 -460 64 -75 84 -109 114 -202 13 -38 23 -68 24 -68 1 0 1 35 1
78 -1 55 -7 88 -20 112 -16 31 -18 60 -18 260 0 229 6 285 60 580 32 172 106
506 139 629 74 271 181 561 207 561 5 0 9 -24 8 -52 -1 -29 -1 -59 -1 -65 1
-15 31 -18 31 -4 0 15 120 70 170 77 l44 7 -17 -27 c-29 -44 -20 -49 80 -47
105 2 100 6 150 -109 15 -36 51 -105 80 -155 58 -97 129 -269 203 -490 52
-155 79 -261 114 -437 26 -136 34 -127 -86 -104 -102 20 -403 39 -530 34 -79
-2 -111 -8 -132 -21 -35 -23 -29 -32 10 -13 44 21 183 28 349 16 163 -11 371
-38 395 -51 20 -9 50 -156 60 -294 23 -291 31 -449 27 -527 -2 -49 -3 -88 -2
-88 2 0 11 21 21 48 10 26 28 60 41 75 12 15 30 50 40 77 10 28 21 50 26 50 4
0 3 8 -2 19 -9 17 -7 91 5 149 4 19 7 21 25 11 11 -6 23 -9 25 -6 2 2 -7 10
-21 17 l-25 13 6 191 c4 105 9 193 11 196 10 11 119 -57 130 -80 6 -14 16 -88
23 -165 6 -77 15 -183 20 -235 13 -139 12 -559 -1 -600 -6 -19 -15 -75 -20
-125 -35 -362 -31 -348 -105 -381 -119 -52 -351 -57 -485 -9 -154 55 -275 93
-314 98 l-40 6 25 -17 c14 -9 71 -59 128 -109 56 -51 112 -95 125 -98 206 -47
442 -28 560 45 28 17 47 24 47 17 0 -20 -80 -271 -89 -280 -5 -5 -27 -3 -50 4
-32 10 -56 10 -105 1 -35 -7 -79 -12 -99 -12 -22 0 -46 -9 -64 -23 -15 -13
-54 -40 -85 -61 -57 -38 -163 -144 -154 -154 3 -3 27 15 53 39 59 55 144 91
204 87 39 -3 44 -5 42 -26 -4 -36 14 -62 44 -62 14 0 52 18 85 40 69 48 108
65 108 48 0 -6 -12 -31 -26 -55 -14 -24 -32 -80 -40 -125 -36 -188 -326 -881
-453 -1079 -28 -44 -34 -48 -123 -77 -117 -38 -274 -82 -293 -82 -13 0 -18 11
-30 72 -5 28 15 36 115 47 52 6 133 20 180 30 l85 20 -85 -7 c-47 -4 -169 -6
-272 -5 l-187 2 -83 33 c-46 19 -150 74 -232 122 -82 48 -150 85 -152 84 -5
-5 209 -136 281 -173 67 -34 221 -105 277 -128 39 -17 57 -49 38 -73 -7 -8
-32 -23 -56 -34 -72 -31 -58 -40 86 -56 45 -5 53 -4 43 7 -7 7 -13 16 -13 21
0 15 58 36 156 56 56 12 130 32 165 46 34 15 64 25 65 23 2 -1 -22 -43 -53
-92 -30 -50 -66 -112 -80 -139 -37 -72 -95 -146 -120 -152 -31 -8 -106 39
-182 114 -58 56 -68 63 -95 58 -17 -3 -48 -2 -69 3 -48 11 -57 -3 -23 -38 27
-29 35 -61 13 -61 -7 0 -30 12 -51 26 -57 39 -36 15 41 -48 88 -72 184 -130
251 -152 50 -17 53 -20 47 -45 -4 -14 -32 -60 -64 -101 -32 -41 -72 -97 -90
-125 l-32 -50 43 50 c69 81 191 205 222 228 20 14 31 17 34 9 2 -6 36 -35 75
-63 40 -29 95 -71 122 -93 28 -22 43 -32 35 -22 -8 10 -62 56 -120 103 -58 47
-105 88 -105 93 0 18 106 90 132 90 15 0 66 -21 113 -45 96 -51 81 -35 -26 28
l-71 41 169 169 169 169 30 -12 c16 -7 50 -35 75 -63 48 -54 51 -71 23 -144
-10 -28 -9 -28 -93 37 -102 79 -106 82 -106 76 0 -3 41 -38 90 -77 62 -49 90
-79 90 -93 0 -12 -17 -70 -37 -131 -37 -109 -39 -111 -127 -203 -49 -51 -100
-95 -113 -98 -30 -8 -30 -24 0 -24 15 0 75 45 178 135 84 74 158 135 163 135
4 0 5 -19 2 -42 -3 -24 -9 -117 -12 -208 -6 -176 21 -537 50 -664 8 -34 22
-104 31 -156 17 -104 72 -288 142 -480 51 -138 78 -196 148 -314 26 -44 57
-104 70 -132 26 -58 94 -138 137 -160 l28 -15 -43 -62 c-49 -68 -122 -206
-138 -259 -31 -102 -69 -273 -68 -305 1 -31 4 -25 19 37 49 210 98 352 141
415 40 57 143 162 168 170 11 3 21 12 21 19 0 18 -53 39 -78 32 -27 -9 -63 22
-129 112 -132 179 -191 303 -291 612 -103 318 -167 695 -178 1040 -7 197 5
349 29 397 23 43 96 122 131 140 17 9 59 22 94 29 l64 12 -7 -26 c-6 -24 -79
-141 -136 -217 -21 -28 -20 -28 15 5 21 19 73 83 116 141 106 143 193 208 277
209 21 1 52 7 68 14 l30 13 -30 8 c-21 6 -47 2 -90 -13 -33 -11 -61 -19 -63
-18 -9 9 112 96 225 162 130 76 530 283 658 340 99 44 314 119 415 144 110 28
236 68 281 91 35 18 36 20 41 86 5 61 15 87 101 260 53 105 101 194 107 198 6
4 17 -8 26 -27 15 -32 15 -33 9 -4 -10 47 -33 96 -45 96 -6 0 -18 -17 -26 -37
-9 -21 -38 -83 -64 -139 -27 -55 -67 -145 -90 -199 -22 -55 -48 -107 -56 -116
-9 -10 -14 -31 -12 -51 3 -29 -1 -35 -32 -50 -35 -17 -220 -74 -357 -109 -232
-61 -737 -298 -978 -459 -55 -37 -119 -79 -143 -94 l-43 -27 16 38 c9 21 46
92 84 158 38 66 112 210 166 320 53 110 114 227 134 260 79 126 224 380 248
434 14 31 36 77 49 102 58 113 152 360 164 434 4 28 22 105 39 172 17 68 40
180 51 250 25 162 46 649 31 713 -6 25 -11 95 -11 157 0 71 -8 151 -21 219
-11 58 -19 132 -18 163 1 37 -5 77 -19 118 -12 34 -22 76 -22 94 0 17 -9 65
-19 107 -11 43 -22 97 -26 122 -3 25 -13 65 -21 90 -7 25 -22 88 -33 140 -11
52 -36 140 -56 195 -19 54 -37 115 -38 135 -2 19 -15 60 -30 90 -29 60 -50
123 -39 118 48 -22 206 -125 217 -142 30 -45 114 -254 145 -361 95 -322 126
-476 150 -740 l7 -80 1 105 c0 58 -3 155 -8 215 -10 140 -70 415 -104 484 -15
28 -33 82 -40 119 -8 37 -26 94 -40 127 -14 33 -26 68 -26 79 0 10 -11 31 -23
46 -25 29 -101 194 -113 245 l-7 30 19 -22 c16 -19 94 -60 94 -50 0 1 -27 22
-61 47 -70 51 -163 169 -216 274 -37 74 -100 168 -194 289 -69 89 -156 216
-194 282 -16 28 -60 84 -99 126 -39 42 -101 112 -138 155 -36 44 -95 112 -130
152 -34 41 -93 110 -129 154 -82 98 -199 200 -199 173z m-906 -1102 c6 -15 1
-118 -10 -211 -5 -38 -11 -47 -52 -73 -61 -38 -72 -37 -72 7 0 91 23 179 62
237 39 58 61 70 72 40z m71 -55 c48 -68 165 -252 165 -259 0 -12 -63 -11 -95
1 -19 7 -25 15 -21 26 3 9 9 27 13 42 5 22 3 24 -13 18 -34 -13 -79 -17 -93
-7 -11 7 -12 28 -6 105 7 102 18 118 50 74z m-1032 -1266 l6 -223 -57 7 c-31
3 -60 9 -64 13 -4 3 -2 26 3 51 6 25 21 108 35 184 24 136 49 215 64 199 4 -4
10 -108 13 -231z m1804 -391 c55 -25 57 -38 49 -299 -5 -182 -8 -217 -31 -291
-14 -47 -26 -87 -26 -90 -6 -25 -19 122 -28 309 -10 194 -20 269 -48 373 -6
23 29 22 84 -2z m108 -3047 c-8 -38 -35 -132 -59 -209 -24 -77 -49 -174 -56
-215 -6 -41 -14 -78 -19 -83 -4 -4 -38 22 -76 57 l-69 64 30 45 c16 25 55 85
88 133 32 49 63 100 69 114 16 38 99 171 104 167 2 -3 -3 -36 -12 -73z m519
-195 c-150 -280 -184 -327 -285 -398 -42 -30 -129 -54 -129 -36 0 16 43 65 75
85 20 12 56 52 82 88 26 37 72 96 103 132 31 36 78 94 105 130 53 72 107 132
112 126 2 -2 -26 -59 -63 -127z m-616 -532 l32 -12 -42 -52 c-35 -42 -112
-113 -123 -113 -4 0 26 78 54 143 22 50 27 52 79 34z"/>
<path d="M17290 18960 l-65 -70 -156 0 c-119 0 -160 -3 -175 -14 -15 -12 -17
-18 -8 -33 13 -21 70 -31 181 -32 39 -1 75 -6 78 -11 4 -6 -21 -44 -54 -85
-78 -97 -188 -256 -191 -275 -5 -31 1 -40 24 -40 18 0 34 13 57 45 18 25 36
45 39 45 4 0 10 -55 14 -122 10 -183 27 -307 46 -331 16 -20 17 -20 39 12 21
29 21 34 8 54 -10 16 -17 86 -26 255 l-13 232 52 73 c29 39 67 87 84 105 l31
33 120 -2 120 -2 -3 -100 c-5 -124 -14 -152 -45 -142 -12 4 -77 10 -144 12
-110 5 -124 3 -130 -12 -9 -24 17 -41 75 -49 122 -16 209 -28 229 -32 22 -4
22 -7 22 -172 l1 -168 -123 -12 c-67 -7 -135 -12 -152 -12 -16 0 -36 -4 -44
-9 -13 -8 -13 -12 -1 -26 13 -15 38 -16 270 -10 363 9 440 20 440 62 0 13 -18
14 -127 9 -71 -4 -145 -9 -165 -12 l-38 -6 0 176 0 176 38 -4 c20 -3 74 -8
118 -11 67 -4 84 -2 95 11 17 21 2 45 -37 56 -16 5 -71 9 -121 9 l-93 0 0 83
c0 49 -6 101 -15 126 -8 23 -15 44 -15 45 0 2 82 1 183 -2 158 -5 184 -4 195
10 11 13 10 19 -7 36 -23 23 -48 26 -349 42 -122 7 -225 15 -228 20 -2 4 8 23
24 41 43 49 53 73 40 86 -20 20 -31 14 -98 -58z"/>
<path d="M8640 18782 c0 -11 -31 -13 -157 -11 -87 2 -252 -3 -368 -10 -231
-15 -216 -11 -308 -95 -51 -47 -13 -43 39 3 26 23 55 41 65 41 10 0 48 -27 85
-60 36 -33 100 -87 143 -120 42 -33 112 -89 156 -124 109 -86 194 -141 268
-177 90 -42 115 -37 37 9 -110 65 -277 180 -348 240 -37 32 -89 73 -117 91
-49 33 -175 149 -175 162 0 3 43 4 95 2 52 -1 155 3 228 11 121 12 145 11 243
-5 138 -23 144 -23 144 -1 0 22 -29 64 -30 44z"/>
<path d="M7480 18580 c-51 -13 -251 -123 -360 -199 -163 -113 -389 -348 -602
-626 -153 -198 -351 -469 -390 -534 -23 -36 -62 -97 -88 -136 -72 -107 -239
-375 -262 -420 -12 -22 -64 -112 -116 -200 -111 -185 -348 -663 -517 -1045
-61 -138 -167 -428 -260 -712 -113 -345 -156 -534 -131 -570 12 -17 14 -13 20
32 4 28 4 55 1 60 -9 15 21 131 106 400 130 411 187 554 409 1020 224 470 270
561 414 807 39 67 104 180 145 250 41 70 129 211 196 313 67 102 139 211 159
243 20 32 92 132 159 221 67 89 139 187 160 218 21 31 59 81 85 112 26 30 65
79 87 108 59 77 363 381 415 414 25 15 66 45 91 66 57 47 150 99 222 126 61
23 130 62 107 61 -8 -1 -31 -5 -50 -9z"/>
<path d="M10124 18531 c3 -5 18 -12 33 -16 96 -24 544 -349 627 -455 26 -33
89 -94 140 -134 90 -71 118 -101 209 -216 23 -30 65 -71 92 -90 61 -43 172
-157 223 -228 20 -29 65 -90 99 -136 93 -125 202 -304 287 -471 75 -147 126
-236 126 -224 0 15 -86 211 -141 322 -102 202 -317 515 -424 617 -20 19 -73
79 -117 132 -72 88 -332 335 -553 524 -201 173 -429 333 -519 364 -64 22 -90
25 -82 11z"/>
<path d="M8065 18008 c-52 -41 -193 -230 -244 -327 l-51 -96 -179 -119 c-206
-137 -250 -182 -370 -378 -95 -157 -159 -288 -211 -433 -24 -66 -45 -122 -47
-125 -5 -6 6 200 13 248 6 37 -12 44 -25 10 -5 -13 -23 -59 -40 -103 -35 -89
-46 -128 -92 -320 -26 -109 -32 -156 -36 -294 -6 -176 -7 -165 58 -453 49
-213 62 -319 62 -503 0 -131 -5 -201 -22 -305 -17 -96 -25 -194 -28 -337 l-6
-203 -31 -23 c-17 -13 -65 -45 -106 -71 l-75 -46 -17 22 c-33 43 -96 173 -118
243 -12 39 -32 95 -45 125 -14 31 -31 83 -39 115 -7 33 -25 101 -39 150 -45
162 -87 362 -97 467 -5 57 -16 128 -24 158 -18 69 -34 200 -24 200 6 0 223
-131 298 -179 13 -9 21 -11 18 -5 -4 5 -70 50 -146 98 -77 48 -148 96 -157
106 -10 11 -26 20 -35 20 -17 0 -86 34 -135 66 -14 9 -25 14 -25 11 0 -3 34
-27 76 -53 44 -28 79 -57 85 -71 5 -13 9 -77 9 -141 0 -103 13 -219 49 -427
19 -111 105 -441 131 -505 44 -109 152 -345 170 -375 25 -41 25 -61 0 -75 -25
-14 -26 -30 -1 -30 37 0 51 -37 51 -137 0 -57 -4 -93 -10 -93 -6 0 -43 24 -83
54 -40 30 -115 80 -167 111 -52 32 -151 95 -220 140 -69 45 -146 94 -172 109
-36 20 -50 35 -59 64 -12 40 -26 362 -15 362 3 0 39 -26 79 -58 39 -32 86 -66
102 -76 l30 -17 -29 23 c-83 65 -173 141 -184 156 -17 21 -8 228 14 315 22 92
16 120 -17 81 -20 -24 -43 -175 -41 -269 3 -109 -3 -116 -64 -76 -46 31 -31
12 22 -27 33 -23 44 -73 44 -202 0 -58 7 -183 16 -278 10 -94 15 -175 12 -178
-6 -6 -122 63 -177 105 -19 14 -40 40 -47 58 -18 41 -19 193 -2 193 6 0 43
-22 82 -48 126 -85 121 -71 -7 20 -36 26 -73 58 -82 72 -25 37 -37 284 -19
368 8 37 13 126 14 216 0 83 2 152 5 152 3 0 47 -25 97 -55 50 -30 96 -55 101
-55 6 0 -25 22 -69 48 -130 79 -124 73 -124 113 0 20 4 58 9 85 5 27 14 92 20
144 11 97 70 299 110 378 13 25 17 43 11 47 -6 3 -10 0 -10 -8 0 -7 -13 -38
-29 -68 -43 -78 -121 -327 -121 -382 0 -25 -7 -78 -15 -118 -9 -40 -18 -123
-20 -184 -3 -73 -11 -132 -25 -174 -11 -35 -20 -73 -20 -85 0 -11 -12 -48 -26
-81 -14 -33 -41 -98 -59 -145 -18 -47 -38 -84 -44 -83 -5 2 -8 -4 -5 -12 4 -8
-6 -51 -22 -94 l-28 -79 -37 29 c-54 42 -61 35 -10 -10 l44 -39 -21 -68 c-38
-127 -80 -308 -107 -459 -36 -207 -64 -348 -70 -353 -10 -10 -16 6 -31 84 -30
151 -60 686 -44 779 5 27 14 118 19 200 30 422 56 556 166 850 l8 20 -21 -20
c-23 -22 -133 -265 -152 -335 -7 -24 -22 -65 -35 -90 -45 -90 -256 -714 -280
-827 -3 -18 -18 -49 -32 -69 -24 -36 -25 -45 -30 -223 -4 -162 -2 -211 21
-386 25 -191 43 -293 45 -250 0 11 -6 70 -14 130 -8 61 -18 193 -21 295 -6
174 -5 193 20 325 32 164 79 333 183 650 99 303 109 331 132 368 l20 31 6 -26
c8 -32 -12 -242 -31 -323 -26 -115 -36 -307 -31 -617 5 -329 15 -406 74 -568
22 -62 28 -98 32 -210 l6 -135 13 84 c8 46 17 134 22 195 12 150 52 399 94
581 34 149 81 324 90 333 3 2 49 -29 103 -69 112 -85 95 -46 154 -344 17 -88
44 -200 61 -250 31 -98 132 -276 181 -322 l30 -28 -27 45 c-39 65 -109 206
-134 270 -33 85 -79 275 -91 380 -7 52 -14 103 -17 113 -3 10 0 17 7 17 21 0
168 -90 187 -115 13 -16 23 -58 32 -139 7 -64 11 -118 9 -120 -2 -3 -33 18
-69 46 -75 58 -100 73 -100 59 0 -5 35 -34 78 -64 99 -69 116 -94 110 -159 -3
-32 2 -75 13 -117 15 -55 18 -59 14 -23 -4 37 -2 43 12 40 19 -3 27 -22 103
-243 95 -277 111 -314 192 -437 57 -85 114 -155 204 -246 139 -142 147 -137
22 13 -185 224 -261 348 -344 561 -46 120 -108 323 -101 331 3 2 36 -15 73
-38 38 -23 72 -43 77 -46 4 -2 7 -2 7 0 0 3 -36 28 -79 56 -83 55 -100 79
-117 166 l-7 38 59 -33 c32 -19 88 -53 124 -76 36 -23 83 -50 105 -62 22 -11
76 -45 120 -76 59 -42 70 -47 40 -20 -52 48 -185 136 -326 215 -100 57 -114
69 -131 106 -20 46 -46 198 -36 209 13 13 268 -151 401 -257 49 -39 91 -69 93
-66 12 11 -186 162 -420 320 -99 66 -104 78 -90 203 l9 75 248 -163 c136 -90
288 -189 338 -221 119 -77 120 -78 107 -302 -8 -139 7 -113 19 35 l8 95 24
-95 c74 -293 156 -556 243 -778 15 -40 28 -81 28 -91 0 -12 -17 -29 -42 -44
-24 -14 -63 -44 -88 -67 -25 -22 -64 -54 -87 -70 l-41 -30 -8 78 c-4 42 -8
109 -8 147 -1 57 2 69 14 67 12 -3 12 0 -2 15 -27 31 -38 96 -38 225 1 122
-19 276 -33 262 -8 -8 -1 -296 9 -386 l5 -48 -64 49 c-78 59 -157 97 -217 106
-63 10 -43 -5 69 -51 100 -40 186 -100 200 -137 5 -13 14 -74 20 -137 6 -63
14 -133 17 -155 l6 -40 -62 -29 c-49 -22 -88 -53 -174 -140 -133 -132 -254
-291 -492 -647 -97 -145 -198 -291 -223 -324 -26 -33 -63 -82 -81 -110 -19
-27 -84 -113 -146 -190 -140 -175 -251 -270 -346 -297 -35 -9 -64 -17 -65 -18
-2 0 -80 154 -174 342 -172 343 -245 507 -386 863 -169 429 -205 540 -229 705
l-15 105 62 122 61 121 -20 64 c-12 34 -35 115 -52 178 -44 162 -82 230 -152
266 -44 23 -43 16 4 -26 53 -46 76 -94 129 -275 61 -205 61 -211 -1 -330 -89
-168 -85 -222 45 -605 151 -445 233 -635 476 -1115 145 -285 392 -795 421
-870 10 -27 43 -102 73 -165 57 -121 87 -218 110 -360 13 -85 13 -85 14 -28 1
73 -19 177 -64 330 -28 94 -67 185 -166 385 -71 144 -129 267 -129 273 0 6 28
10 68 10 64 0 73 3 123 39 110 79 370 404 620 775 33 50 86 126 118 170 32 45
106 152 165 238 116 168 261 349 329 411 43 39 110 76 138 77 11 0 19 -18 28
-67 8 -38 19 -81 26 -98 l13 -30 1 40 c0 22 -6 71 -14 109 -8 38 -11 74 -7 81
14 25 118 100 176 127 32 16 71 37 87 48 33 24 27 32 88 -110 43 -98 86 -164
102 -155 21 14 6 63 -45 151 -47 80 -76 147 -76 177 0 9 91 52 140 65 l35 10
-30 1 c-16 0 -57 -11 -90 -24 -33 -14 -62 -21 -66 -17 -10 11 -56 200 -84 347
-41 220 -71 493 -54 509 9 9 112 -157 137 -222 16 -41 43 -84 77 -120 58 -63
78 -98 106 -183 26 -78 124 -286 154 -325 20 -26 22 -33 10 -38 -27 -10 -17
-28 13 -21 36 8 47 -5 106 -122 33 -67 49 -114 57 -169 7 -41 15 -72 19 -67 5
4 17 38 28 74 11 36 31 92 45 125 13 32 30 83 37 111 25 110 254 418 304 411
13 -2 49 -41 99 -108 43 -58 123 -150 177 -205 60 -60 100 -108 100 -120 0
-22 -76 -129 -108 -151 -16 -11 -31 -12 -60 -5 -24 5 -80 5 -139 -1 -139 -13
-205 -6 -287 31 -67 30 -90 35 -64 13 7 -5 42 -25 78 -43 l65 -34 153 2 153 3
15 -36 c8 -20 13 -42 10 -50 -8 -20 -48 -43 -118 -68 -70 -24 -127 -63 -403
-277 -313 -243 -672 -612 -845 -869 -51 -76 -110 -180 -110 -195 0 -17 20 2
50 48 174 268 460 590 750 848 191 169 623 465 700 480 19 4 190 -42 190 -51
0 -11 -54 -47 -129 -85 -40 -20 -70 -39 -67 -42 11 -11 256 115 256 132 0 19
-39 35 -84 35 -41 0 -120 40 -124 63 -2 10 16 39 42 68 26 29 54 65 63 80 10
16 23 29 30 29 9 0 11 8 7 24 -3 14 1 37 10 55 l16 30 -38 20 c-45 23 -115 96
-197 208 -32 43 -71 94 -86 115 -16 20 -39 61 -53 91 -13 30 -34 62 -47 71
-45 31 -174 112 -264 165 -179 106 -460 350 -583 506 -41 52 -102 155 -102
171 0 5 50 47 110 93 60 47 113 94 116 105 5 14 -1 26 -20 43 -15 13 -33 23
-41 23 -22 0 -45 -30 -45 -59 0 -46 -95 -171 -130 -171 -14 0 -21 50 -9 71 12
24 5 49 -14 49 -24 0 -69 41 -83 76 -11 27 -11 41 1 88 8 32 15 85 15 119 1
34 5 94 10 132 17 124 42 608 35 680 -6 71 -28 194 -70 390 -41 190 -46 228
-43 300 3 69 3 69 46 102 24 18 47 33 51 33 4 0 15 -35 25 -77 9 -43 23 -89
31 -103 l14 -25 1 27 c0 23 -16 115 -35 195 -4 16 5 34 31 63 42 46 195 152
248 171 20 7 36 17 36 22 0 5 -6 7 -14 4 -8 -3 -32 -11 -53 -16 -46 -12 -107
-50 -186 -115 -70 -57 -72 -55 -64 97 7 128 17 165 98 371 90 224 166 360 284
511 99 125 138 158 265 219 89 43 123 65 150 98 19 23 29 39 23 35 -75 -47
117 269 250 411 53 56 57 66 12 30z m-1135 -1698 c5 -41 10 -100 10 -130 0
-54 -2 -57 -44 -92 l-44 -37 -6 47 c-8 65 9 234 36 345 l22 92 8 -75 c4 -41
12 -109 18 -150z m-1342 -1673 c1 -86 -1 -157 -5 -157 -20 0 -113 62 -113 74
0 21 59 186 78 219 30 50 37 26 40 -136z m-71 -137 c63 -27 73 -42 74 -114 0
-34 4 -86 8 -116 5 -30 7 -57 5 -59 -3 -3 -19 9 -37 26 -17 17 -60 49 -94 72
-35 23 -63 45 -63 49 1 34 44 162 54 162 3 0 26 -9 53 -20z m1337 -306 c3 -9
6 -27 6 -40 0 -14 6 -37 14 -52 21 -40 45 -168 44 -237 0 -33 7 -87 15 -120 8
-33 18 -82 22 -109 4 -27 9 -56 13 -65 8 -24 -58 62 -132 169 -80 118 -141
231 -162 299 -17 60 -20 57 90 131 64 44 81 48 90 24z m-110 -353 c67 -128 85
-189 96 -324 12 -152 24 -248 53 -424 13 -79 22 -143 20 -143 -11 0 -51 106
-111 295 -82 257 -110 361 -119 446 l-6 61 24 -12 c23 -12 23 -12 -3 16 -15
16 -34 46 -42 66 -16 38 -22 129 -9 141 13 13 50 -34 97 -122z m295 10 c76
-106 276 -291 408 -377 273 -179 311 -203 380 -243 40 -24 77 -49 83 -56 15
-18 1 -44 -65 -120 -81 -95 -130 -164 -169 -242 -46 -94 -65 -94 -186 -8 -61
43 -75 51 -66 36 4 -6 44 -37 88 -68 44 -31 84 -66 90 -78 7 -16 3 -38 -18
-93 -16 -40 -31 -72 -35 -72 -7 0 -21 29 -66 139 -19 47 -69 144 -112 215 -79
131 -191 335 -263 476 -74 146 -149 430 -148 560 1 35 1 35 18 14 9 -12 37
-49 61 -83z m14 -421 c-8 -8 -33 32 -26 43 3 5 12 -1 19 -14 7 -13 10 -26 7
-29z"/>
<path d="M7220 13437 c0 -3 36 -28 81 -56 45 -29 92 -59 105 -68 13 -8 24 -13
24 -10 0 3 -30 25 -67 49 -96 63 -143 90 -143 85z"/>
<path d="M7490 13016 c0 -2 8 -10 18 -17 15 -13 16 -12 3 4 -13 16 -21 21 -21
13z"/>
<path d="M17457 17863 c-13 -12 -7 -42 13 -75 11 -18 20 -36 20 -40 0 -5 -69
-8 -154 -8 -152 0 -155 0 -186 -26 -24 -20 -28 -29 -18 -35 23 -15 272 -10
335 6 43 12 104 16 233 15 222 -2 203 -4 190 20 -10 18 -21 20 -145 20 l-133
0 -22 34 c-40 66 -110 113 -133 89z"/>
<path d="M6710 17836 c0 -3 9 -10 20 -16 11 -6 20 -8 20 -6 0 3 -9 10 -20 16
-11 6 -20 8 -20 6z"/>
<path d="M6760 17806 c0 -2 8 -10 18 -17 15 -13 16 -12 3 4 -13 16 -21 21 -21
13z"/>
<path d="M10059 17762 c14 -11 38 -27 55 -37 l31 -17 -24 20 c-14 11 -38 27
-55 37 l-31 17 24 -20z"/>
<path d="M16943 17704 c-10 -28 25 -44 94 -44 70 0 92 18 57 45 -28 21 -143
20 -151 -1z"/>
<path d="M17435 17560 c-143 -9 -198 -31 -164 -66 12 -11 25 -11 69 -2 30 6
139 13 242 15 197 4 228 12 193 47 -18 18 -124 19 -340 6z"/>
<path d="M16904 17516 c-10 -26 8 -38 88 -58 56 -14 73 -15 80 -6 4 7 6 17 5
22 -14 43 -159 77 -173 42z"/>
<path d="M17266 17397 c-10 -7 -17 -22 -14 -33 3 -16 16 -20 93 -28 50 -5 167
-10 260 -10 l170 -1 3 28 3 27 -141 0 c-95 0 -151 4 -173 13 -43 18 -178 21
-201 4z"/>
<path d="M7050 17356 c0 -3 9 -10 20 -16 11 -6 20 -8 20 -6 0 3 -9 10 -20 16
-11 6 -20 8 -20 6z"/>
<path d="M7721 17284 c0 -11 3 -14 6 -6 3 7 2 16 -1 19 -3 4 -6 -2 -5 -13z"/>
<path d="M7712 17240 c0 -14 2 -19 5 -12 2 6 2 18 0 25 -3 6 -5 1 -5 -13z"/>
<path d="M16986 17241 c-17 -19 -46 -148 -46 -207 0 -45 24 -102 58 -137 67
-71 192 -99 344 -77 51 7 114 15 140 17 39 4 52 11 72 37 22 29 32 34 86 39
64 7 110 26 148 60 18 17 22 31 22 83 0 56 -3 67 -30 98 -54 61 -95 70 -301
63 -111 -3 -185 -9 -193 -16 -8 -7 -24 -37 -36 -67 -21 -50 -22 -59 -9 -96 20
-63 42 -83 116 -108 37 -12 74 -26 82 -30 29 -15 -33 -33 -129 -38 -80 -3
-107 0 -170 20 -120 38 -146 96 -115 254 10 51 15 99 12 108 -8 21 -30 20 -51
-3z m702 -85 c48 -25 64 -50 60 -97 -3 -37 -8 -46 -38 -64 -29 -16 -56 -21
-150 -23 -138 -5 -191 7 -237 53 -54 54 -42 95 37 129 48 21 289 22 328 2z"/>
<path d="M7701 17194 c0 -11 3 -14 6 -6 3 7 2 16 -1 19 -3 4 -6 -2 -5 -13z"/>
<path d="M7692 17150 c0 -14 2 -19 5 -12 2 6 2 18 0 25 -3 6 -5 1 -5 -13z"/>
<path d="M11029 17130 c13 -11 28 -20 35 -20 6 0 0 9 -14 20 -33 26 -52 25
-21 0z"/>
<path d="M10050 16796 c0 -3 9 -10 20 -16 11 -6 20 -8 20 -6 0 3 -9 10 -20 16
-11 6 -20 8 -20 6z"/>
<path d="M10105 16763 c10 -10 266 -181 295 -198 43 -23 -19 22 -140 102 -142
95 -172 113 -155 96z"/>
<path d="M17390 16640 c-96 -9 -273 -40 -370 -65 -68 -18 -85 -26 -85 -40 0
-13 11 -22 34 -27 28 -8 32 -13 28 -31 -3 -12 -17 -67 -31 -122 -30 -116 -32
-152 -11 -222 18 -61 78 -121 148 -148 26 -10 47 -21 47 -25 0 -5 -29 -51 -65
-103 -98 -144 -120 -205 -78 -221 22 -9 46 16 62 61 19 52 104 193 135 222
l25 24 105 -18 c106 -17 189 -14 230 7 17 9 18 8 11 -13 -4 -13 -10 -63 -12
-112 l-5 -87 40 -40 c33 -33 46 -40 80 -40 76 0 228 61 239 95 1 6 -1 16 -6
24 -11 16 -62 5 -165 -37 -66 -26 -99 -23 -117 10 -15 28 -6 102 20 161 18 43
27 51 85 77 72 32 103 69 138 169 16 45 19 73 15 141 -9 142 -56 227 -140 252
-53 16 -175 16 -204 -1 -30 -16 -29 -49 1 -62 20 -9 33 -7 70 11 49 23 79 20
134 -16 29 -19 72 -108 72 -150 l0 -32 -105 6 c-92 4 -105 3 -111 -12 -10 -27
7 -36 102 -51 113 -19 123 -28 99 -92 -39 -101 -129 -143 -330 -150 -136 -5
-267 18 -355 62 -75 38 -117 107 -108 180 2 25 7 30 28 27 14 -2 77 -6 140 -9
101 -4 118 -3 130 12 25 31 -11 45 -114 45 -50 0 -107 3 -127 6 l-36 6 19 91
c25 126 31 133 115 140 37 3 88 13 112 21 24 9 74 16 110 16 69 0 91 10 91 41
0 23 -14 25 -90 19z"/>
<path d="M11994 16370 c3 -14 22 -86 41 -160 18 -74 43 -191 55 -260 11 -69
27 -154 35 -190 7 -36 16 -123 20 -195 3 -71 15 -191 25 -265 11 -74 27 -232
36 -350 15 -190 16 -246 5 -460 -26 -539 -91 -933 -192 -1167 -18 -40 -36 -73
-40 -73 -5 0 -10 55 -11 123 l-1 122 -7 -155 c-4 -85 -11 -182 -15 -215 -5
-42 -4 -57 3 -50 14 13 154 372 180 460 34 115 94 517 112 755 24 296 0 910
-44 1158 -9 46 -20 140 -27 210 -6 70 -19 163 -29 207 -10 44 -21 100 -25 125
-20 128 -83 346 -111 384 -16 21 -16 21 -10 -4z"/>
<path d="M13031 16081 c-10 -6 2 -11 38 -16 77 -10 179 -66 260 -141 70 -65
87 -93 164 -264 13 -29 16 -31 16 -12 2 41 -38 136 -86 206 -57 83 -121 136
-229 188 -85 41 -140 55 -163 39z"/>
<path d="M4147 16010 c-36 -38 -71 -79 -77 -92 -7 -13 3 -5 21 17 18 22 57 64
87 93 29 28 49 52 44 52 -5 0 -39 -31 -75 -70z"/>
<path d="M13846 15845 c37 -49 76 -99 87 -110 18 -18 18 -16 -2 21 -13 22 -52
71 -87 110 l-65 69 67 -90z"/>
<path d="M6210 15798 c1 -7 17 -21 37 -30 l37 -17 -33 29 c-36 33 -41 36 -41
18z"/>
<path d="M3551 15744 c0 -11 3 -14 6 -6 3 7 2 16 -1 19 -3 4 -6 -2 -5 -13z"/>
<path d="M6305 15735 c11 -9 29 -21 40 -26 l20 -10 -20 16 c-11 9 -29 21 -40
26 l-20 10 20 -16z"/>
<path d="M5764 15722 c8 -13 66 -56 66 -49 0 3 -17 17 -37 33 -20 15 -33 23
-29 16z"/>
<path d="M6370 15696 c0 -3 9 -10 20 -16 11 -6 20 -8 20 -6 0 3 -9 10 -20 16
-11 6 -20 8 -20 6z"/>
<path d="M13503 15604 c-3 -8 -1 -25 4 -37 8 -18 10 -16 9 16 -1 41 -4 45 -13
21z"/>
<path d="M3970 15566 c0 -28 58 -143 92 -182 54 -61 272 -194 318 -194 26 0 5
17 -32 27 -53 14 -159 81 -214 135 -23 22 -45 39 -50 38 -8 -2 -26 27 -82 135
-18 33 -32 52 -32 41z"/>
<path d="M3556 15530 c25 -224 132 -378 313 -450 29 -11 57 -20 64 -20 7 1
-17 13 -53 27 -87 35 -194 140 -238 233 -26 56 -67 168 -85 235 -3 11 -4 0 -1
-25z"/>
<path d="M13458 15442 c-52 -110 -145 -220 -243 -287 -65 -45 -72 -56 -15 -24
60 34 165 120 201 165 35 43 80 129 98 187 25 74 5 55 -41 -41z"/>
<path d="M6050 15517 c0 -2 26 -21 58 -41 31 -20 45 -27 30 -14 -30 26 -88 62
-88 55z"/>
<path d="M13985 15468 c-10 -43 -121 -153 -287 -284 -69 -54 -138 -109 -154
-122 -24 -19 -22 -18 15 4 108 64 361 276 416 348 27 35 43 86 27 86 -6 0 -14
-15 -17 -32z"/>
<path d="M7554 15379 c6 -29 66 -143 72 -136 7 6 -19 105 -34 130 -26 45 -47
48 -38 6z"/>
<path d="M17025 15361 c-88 -6 -90 -7 -90 -31 l0 -25 285 0 c215 0 285 -3 285
-12 0 -7 -37 -43 -82 -80 -46 -37 -119 -99 -163 -137 -93 -79 -360 -355 -360
-372 0 -6 7 -17 15 -24 21 -18 43 -1 193 144 70 67 137 128 149 134 19 11 25
7 59 -40 86 -120 129 -262 110 -363 l-7 -37 -72 4 c-63 3 -72 1 -75 -15 -6
-31 27 -46 99 -47 59 0 68 3 93 29 28 29 28 30 24 138 -3 101 -6 113 -43 193
-22 47 -60 109 -84 139 l-44 54 151 148 150 149 130 0 c102 0 132 3 142 15 7
8 10 22 6 30 -5 13 -55 15 -393 13 -213 -1 -428 -4 -478 -7z"/>
<path d="M8910 15248 c-28 -49 -80 -193 -80 -221 0 -7 26 35 58 93 31 58 65
116 74 129 9 13 14 30 11 37 -10 27 -33 13 -63 -38z"/>
<path d="M5310 15211 c39 -34 150 -114 150 -108 0 5 -151 121 -170 131 -8 4 1
-6 20 -23z"/>
<path d="M17493 14963 c-27 -10 -13 -43 28 -64 105 -53 270 -109 323 -109 83
0 105 43 28 55 -54 10 -154 43 -261 86 -97 40 -98 41 -118 32z"/>
<path d="M6980 14744 c0 -5 10 -20 21 -34 11 -14 31 -42 45 -63 32 -48 62 -61
201 -83 93 -15 120 -16 165 -5 73 16 218 100 241 139 24 41 9 46 -44 16 -99
-56 -95 -55 -316 -50 -220 5 -223 6 -285 64 -16 14 -28 22 -28 16z"/>
<path d="M17051 14257 c-11 -13 -44 -79 -72 -148 l-52 -124 7 -164 c4 -91 12
-173 17 -183 11 -20 48 -24 50 -5 1 6 1 42 -1 80 l-2 67 43 19 c24 10 56 21
70 25 l26 6 -25 -73 c-42 -123 -42 -312 0 -455 13 -43 36 -52 58 -22 17 23 18
23 192 16 96 -3 190 -11 209 -16 44 -13 175 -13 199 0 51 27 78 140 48 204
-22 50 -52 60 -193 63 -142 4 -208 -6 -373 -59 -51 -16 -97 -26 -102 -23 -6 3
-10 31 -10 61 l0 54 108 0 c59 1 168 5 243 9 197 12 227 33 213 154 -10 92
-24 100 -143 94 -109 -6 -283 -31 -325 -46 -15 -6 -39 -11 -53 -11 -22 0 -25
4 -21 25 3 14 1 25 -5 25 -40 0 128 55 213 70 25 4 72 15 105 24 35 9 97 16
151 16 81 0 98 -3 145 -28 53 -28 54 -29 52 -71 -1 -24 -9 -54 -17 -67 -18
-27 -20 -50 -6 -59 16 -10 39 13 66 67 28 54 30 78 10 116 -40 76 -121 106
-269 98 -56 -3 -121 -8 -143 -11 -39 -7 -44 -5 -82 37 -35 36 -44 41 -59 32
-26 -16 -28 -43 -4 -75 l21 -28 -58 -11 c-84 -17 -109 -24 -194 -59 -82 -32
-105 -32 -114 3 -5 21 28 110 46 121 9 5 177 -11 202 -20 21 -8 41 10 34 32
-9 29 -51 45 -134 51 -40 2 -75 8 -77 12 -3 4 3 18 13 30 21 25 70 35 224 46
54 4 101 11 104 16 3 5 0 16 -7 25 -11 13 -29 14 -109 9 -52 -3 -109 -8 -126
-12 -30 -6 -32 -4 -38 29 -10 51 -28 62 -55 34z m586 -475 c7 -5 16 -28 19
-53 5 -35 2 -48 -10 -58 -27 -22 -180 -40 -343 -41 l-153 0 0 33 c0 26 6 36
25 45 28 13 243 68 290 75 55 7 160 7 172 -1z m106 -316 c22 -15 27 -26 27
-59 0 -63 -20 -77 -104 -77 -69 0 -217 11 -399 29 -125 12 -145 40 -40 56 24
3 87 18 141 31 179 46 323 54 375 20z"/>
<path d="M17496 14237 c-29 -50 -55 -130 -63 -194 -4 -34 -2 -43 10 -43 21 0
50 39 71 94 17 44 20 46 56 46 35 0 70 -19 70 -39 0 -4 23 -27 51 -51 l52 -44
18 23 c19 24 17 42 -13 80 -10 13 -16 26 -13 29 2 3 37 5 76 6 55 1 74 5 82
18 8 12 7 21 -2 32 -11 13 -37 16 -145 15 -82 0 -124 -4 -111 -9 16 -7 11 -9
-22 -9 -40 -1 -42 0 -55 41 -8 23 -19 43 -25 45 -6 2 -23 -16 -37 -40z"/>
<path d="M10540 14056 c0 -2 8 -10 18 -17 15 -13 16 -12 3 4 -13 16 -21 21
-21 13z"/>
<path d="M7900 13982 c0 -11 11 -44 24 -73 13 -30 45 -130 72 -223 26 -93 49
-165 51 -159 2 6 -10 69 -26 141 -17 71 -31 138 -31 149 0 29 66 128 94 141
48 22 261 -11 351 -55 27 -13 28 -12 11 1 -50 40 -258 83 -453 93 -88 5 -93 4
-93 -15z"/>
<path d="M14555 13950 c-82 -10 -221 -28 -308 -39 -166 -22 -250 -25 -329 -12
-26 4 -45 4 -42 -1 3 -4 18 -8 33 -8 15 0 52 -7 81 -16 34 -10 73 -14 105 -11
76 8 274 35 424 59 178 28 275 21 420 -28 121 -41 231 -90 303 -134 73 -45 49
-19 -31 35 -95 62 -243 131 -321 149 -108 24 -178 25 -335 6z"/>
<path d="M13743 13903 c9 -2 23 -2 30 0 6 3 -1 5 -18 5 -16 0 -22 -2 -12 -5z"/>
<path d="M13655 13879 c-22 -12 -51 -29 -65 -39 -14 -10 -44 -27 -67 -39 -55
-28 -164 -129 -201 -189 -80 -126 -83 -314 -12 -711 34 -189 24 -328 -41 -576
-47 -182 -135 -461 -179 -570 -18 -44 -46 -118 -62 -165 -71 -199 -233 -590
-245 -590 -3 0 -59 51 -126 113 -228 211 -294 272 -483 442 -104 94 -252 231
-330 307 -78 75 -177 162 -220 194 -44 31 -122 98 -174 148 -251 241 -359 327
-500 404 -82 44 -307 122 -355 122 -28 0 -29 -1 -9 -14 11 -8 56 -24 100 -35
243 -63 340 -125 688 -445 412 -378 506 -467 571 -532 38 -39 120 -113 180
-165 61 -51 157 -139 215 -194 58 -56 150 -136 205 -178 55 -42 130 -100 167
-130 l66 -54 -83 -189 c-46 -104 -118 -265 -160 -359 -42 -93 -97 -224 -120
-290 -24 -66 -57 -156 -74 -200 -51 -139 -117 -440 -131 -603 -5 -52 -10 -96
-13 -98 -11 -12 -252 262 -405 459 -224 290 -451 548 -696 791 -271 267 -461
426 -509 426 -11 0 -58 -18 -104 -40 -47 -22 -87 -40 -90 -40 -12 0 -244 -133
-239 -137 2 -2 73 28 158 67 183 86 242 110 270 110 21 0 98 -39 98 -49 0 -3
-38 -29 -83 -58 -131 -82 -445 -328 -433 -340 7 -7 100 56 208 140 124 97 138
105 138 76 0 -44 -36 -92 -148 -196 -114 -106 -192 -194 -192 -216 0 -6 11 5
25 24 13 19 90 97 170 174 136 131 147 144 169 205 20 58 30 70 85 113 34 26
70 47 81 47 55 0 743 -701 820 -836 34 -59 79 -112 219 -259 236 -248 434
-486 475 -570 19 -38 44 -79 56 -90 31 -27 238 -259 333 -371 114 -136 242
-246 350 -301 53 -26 112 -28 112 -3 0 11 -11 14 -45 12 -34 -2 -53 3 -77 20
-69 51 -266 233 -340 315 -43 48 -116 128 -163 178 -47 50 -101 120 -121 155
-19 36 -51 90 -71 120 l-35 55 13 64 c7 36 17 68 22 73 5 5 17 -12 27 -39 21
-58 107 -224 112 -219 3 2 -7 27 -21 55 -43 84 -68 153 -77 216 -11 72 3 220
33 350 22 95 142 449 185 544 14 31 44 101 68 156 23 55 78 177 122 270 116
245 190 420 288 675 47 124 99 257 114 295 52 128 167 501 211 687 11 46 28
142 39 215 23 152 20 206 -25 448 -24 127 -28 177 -29 325 l0 175 31 65 c36
75 83 125 126 134 17 3 57 31 94 64 35 32 89 73 121 90 32 17 51 32 43 32 -8
0 -33 -10 -55 -21z"/>
<path d="M8508 13844 c99 -130 176 -335 151 -401 -16 -44 -47 -71 -101 -89
-62 -20 -59 -26 6 -11 133 30 147 147 43 356 -29 59 -71 124 -95 150 l-43 46
39 -51z"/>
<path d="M15345 13684 c85 -76 213 -146 375 -207 230 -86 352 -137 393 -166
84 -57 218 -226 232 -292 11 -48 -12 -106 -52 -134 -61 -41 -124 -49 -227 -31
-49 9 -91 14 -94 12 -2 -2 40 -14 93 -27 84 -19 103 -20 148 -10 158 35 200
145 107 282 -129 190 -214 248 -520 359 -180 65 -303 123 -411 194 -66 44 -75
48 -44 20z"/>
<path d="M3695 13560 c-7 -11 35 -11 80 0 26 7 23 8 -22 9 -28 0 -55 -3 -58
-9z"/>
<path d="M3838 13563 c7 -3 16 -2 19 1 4 3 -2 6 -13 5 -11 0 -14 -3 -6 -6z"/>
<path d="M3527 13516 c-32 -14 -92 -51 -133 -83 -41 -32 -95 -75 -121 -95 -26
-21 -69 -43 -96 -50 -45 -11 -47 -13 -26 -22 13 -6 27 -15 31 -20 8 -11 63 24
132 83 72 62 202 160 249 187 54 30 38 30 -36 0z"/>
<path d="M8051 13500 c0 -8 4 -24 9 -35 5 -13 9 -14 9 -5 0 8 -4 24 -9 35 -5
13 -9 14 -9 5z"/>
<path d="M15170 13484 c0 -15 146 -167 208 -216 37 -30 112 -90 167 -133 200
-160 405 -376 462 -489 27 -54 136 -237 161 -271 13 -19 14 -18 8 13 -18 103
-151 318 -304 492 -106 121 -186 188 -427 357 -114 80 -151 112 -200 175 -54
70 -75 89 -75 72z"/>
<path d="M6200 13437 c0 -3 21 -20 48 -39 57 -41 72 -50 72 -45 0 2 -27 23
-60 46 -33 23 -60 40 -60 38z"/>
<path d="M6465 13263 c6 -5 35 -26 65 -47 40 -27 46 -29 23 -9 -29 26 -110 77
-88 56z"/>
<path d="M2681 13145 c-60 -41 -138 -88 -172 -104 -35 -17 -124 -79 -197 -138
-74 -60 -151 -120 -172 -134 -22 -14 -88 -73 -148 -131 -61 -58 -136 -122
-168 -143 -59 -40 -213 -109 -222 -101 -2 3 44 53 104 112 135 132 89 104 -61
-38 -135 -127 -153 -140 -238 -168 -38 -12 -67 -24 -65 -26 8 -7 197 50 248
76 31 15 84 39 118 53 74 31 136 74 252 177 47 41 121 102 165 135 44 33 111
90 150 126 96 89 132 115 262 189 107 61 287 190 265 190 -6 0 -61 -34 -121
-75z"/>
<path d="M4811 13174 c0 -11 3 -14 6 -6 3 7 2 16 -1 19 -3 4 -6 -2 -5 -13z"/>
<path d="M17112 13038 c-58 -85 -202 -390 -202 -428 0 -24 15 -33 40 -25 13 4
35 39 62 98 103 220 110 232 146 235 17 2 32 0 32 -5 0 -4 2 -84 4 -178 4
-242 37 -372 84 -333 14 12 13 57 -3 104 -6 20 -2 21 132 33 177 16 287 38
309 62 10 11 14 22 11 25 -7 8 -362 -23 -422 -36 -21 -5 -41 -7 -44 -5 -9 9
-12 151 -3 163 7 11 50 12 228 4 217 -9 254 -5 254 23 0 30 -21 33 -290 39
l-195 4 -3 50 -3 49 88 6 c48 3 178 3 288 1 205 -4 247 1 260 34 3 10 -1 21
-10 28 -24 18 -123 26 -180 15 -68 -13 -508 -18 -511 -6 -1 6 -5 27 -9 48 -8
49 -27 47 -63 -5z"/>
<path d="M13979 12770 c13 -11 27 -20 32 -20 18 0 8 10 -23 25 l-33 16 24 -21z"/>
<path d="M14030 12745 c0 -6 156 -85 167 -85 7 1 -157 90 -164 90 -2 0 -3 -2
-3 -5z"/>
<path d="M10380 12709 c-60 -9 -168 -41 -115 -34 53 7 169 27 200 35 l30 8
-30 0 c-16 0 -55 -4 -85 -9z"/>
<path d="M15801 12640 c37 -58 65 -190 39 -190 -15 0 -78 67 -96 101 -8 17
-18 29 -20 26 -16 -16 99 -177 126 -177 28 0 31 26 14 103 -17 76 -45 140 -66
153 -8 5 -7 -1 3 -16z"/>
<path d="M14248 12634 c12 -8 47 -26 78 -40 31 -13 76 -40 101 -59 24 -19 65
-42 91 -51 72 -27 98 -49 171 -148 175 -236 493 -510 714 -617 69 -33 102 -43
157 -47 47 -3 70 -1 70 6 0 13 -61 32 -105 32 -51 1 -95 23 -230 112 -212 139
-373 283 -550 490 -48 57 -103 117 -123 135 -38 36 -154 106 -192 118 -14 4
-60 25 -103 46 -79 40 -119 52 -79 23z"/>
<path d="M9196 12561 c17 -16 179 -124 169 -113 -18 19 -160 122 -169 122 -6
0 -6 -3 0 -9z"/>
<path d="M14194 12523 c198 -315 316 -490 316 -469 0 9 -28 57 -63 108 -35 51
-105 155 -156 231 -52 75 -96 137 -98 137 -2 0 -2 -3 1 -7z"/>
<path d="M14080 12445 c0 -13 77 -157 118 -220 24 -38 94 -138 153 -221 l109
-151 -64 -219 c-35 -120 -82 -280 -104 -354 -22 -74 -56 -202 -76 -285 -21
-82 -62 -247 -92 -365 -51 -203 -80 -329 -118 -515 -10 -44 -34 -163 -55 -265
-52 -250 -158 -569 -251 -755 -97 -195 -165 -282 -356 -450 -177 -157 -266
-241 -244 -229 51 27 251 182 338 262 243 224 349 436 502 1002 17 63 46 153
65 200 31 79 51 166 106 470 23 127 45 228 94 430 18 74 36 153 40 175 9 55
74 295 153 565 113 390 166 589 159 596 -3 4 -36 -100 -44 -139 -1 -10 -12
-36 -24 -59 -17 -34 -23 -38 -34 -27 -26 28 -292 427 -336 504 -28 50 -39 64
-39 50z"/>
<path d="M17458 12439 c-10 -5 -18 -18 -18 -27 0 -19 138 -162 157 -162 17 0
35 37 29 58 -7 21 -38 55 -94 105 -46 40 -49 41 -74 26z"/>
<path d="M17692 12388 c-7 -7 -12 -17 -12 -23 0 -13 173 -185 187 -185 17 0
33 24 33 50 -1 30 -15 48 -96 118 -61 52 -90 62 -112 40z"/>
<path d="M17002 12366 c-45 -57 -85 -287 -55 -317 21 -21 48 26 73 125 25 99
32 207 14 213 -7 2 -21 -7 -32 -21z"/>
<path d="M17224 12348 c-16 -26 -22 -105 -12 -164 18 -110 85 -142 244 -115
86 15 189 67 189 96 0 32 -45 30 -124 -4 -57 -26 -83 -31 -144 -31 -112 0
-115 5 -95 195 3 26 -1 30 -24 33 -14 2 -30 -3 -34 -10z"/>
<path d="M3067 12296 c-16 -13 -54 -29 -85 -36 -32 -7 -165 -51 -297 -97 -298
-106 -488 -168 -585 -193 -96 -24 -254 -39 -454 -42 -153 -2 -158 -3 -125 -18
28 -12 80 -15 306 -13 l272 2 92 41 c50 23 133 52 183 65 50 14 143 44 206 68
198 75 443 147 512 150 l62 2 43 -85 c129 -252 253 -552 253 -610 0 -17 28
-83 65 -153 155 -298 374 -936 481 -1402 9 -38 41 -169 70 -290 124 -505 130
-522 239 -645 37 -41 91 -109 120 -150 93 -132 287 -302 415 -364 l35 -17 -38
34 -38 33 133 28 c139 29 499 143 543 172 13 9 78 78 142 153 65 75 158 179
208 232 49 53 115 135 145 183 30 48 111 165 180 259 69 95 152 210 185 257
33 47 81 113 107 148 26 35 73 105 103 157 56 95 90 129 105 105 4 -7 10 -38
14 -69 4 -31 21 -105 38 -166 28 -97 32 -130 37 -280 7 -182 17 -187 24 -12 5
115 -1 157 -49 327 -22 77 -27 119 -28 220 -1 77 -9 152 -19 195 -9 39 -17
104 -17 145 0 41 -5 82 -10 90 -14 22 -13 -174 2 -259 l12 -69 -44 -68 c-24
-38 -72 -105 -105 -149 -34 -44 -83 -114 -110 -155 -26 -41 -80 -118 -119
-170 -39 -52 -93 -127 -121 -167 -77 -111 -189 -264 -257 -350 -300 -379 -363
-448 -463 -508 -160 -97 -308 -152 -512 -190 l-142 -27 -44 21 c-109 53 -223
158 -344 316 -157 207 -192 279 -244 509 -42 182 -56 243 -75 306 -9 30 -18
66 -21 80 -2 14 -8 34 -13 45 -4 11 -13 49 -19 85 -30 164 -119 496 -191 706
-86 251 -134 375 -275 709 -51 121 -98 238 -105 260 -28 86 -141 346 -204 467
-36 70 -66 134 -66 142 0 15 -59 66 -76 66 -5 -1 -22 -11 -37 -24z"/>
<path d="M9054 12291 c4 -6 22 -18 39 -27 30 -14 31 -14 12 1 -30 25 -59 39
-51 26z"/>
<path d="M1294 12254 c-18 -14 -18 -14 6 -3 31 14 36 19 24 19 -6 0 -19 -7
-30 -16z"/>
<path d="M17334 11885 c-3 -8 4 -28 15 -44 12 -16 21 -32 21 -35 0 -3 -93 -7
-207 -8 l-208 -3 -1 -50 c-3 -120 -26 -496 -34 -563 -6 -40 -10 -130 -10 -198
0 -104 3 -126 16 -131 35 -13 41 17 54 252 14 272 25 411 35 443 6 18 13 22
29 17 11 -3 48 -8 81 -11 102 -9 105 -10 105 -49 0 -28 -5 -37 -30 -50 -40
-21 -154 -101 -169 -119 -18 -22 -9 -51 17 -54 16 -2 40 11 75 41 59 50 91 69
101 60 3 -3 6 -28 6 -55 0 -39 5 -54 25 -74 25 -25 26 -44 2 -44 -22 0 -132
-57 -151 -79 -18 -20 -18 -24 -4 -54 13 -28 13 -39 1 -90 -17 -66 -11 -81 45
-104 52 -22 240 -32 411 -22 190 11 224 18 267 60 l33 32 -25 46 c-15 30 -24
62 -24 92 0 26 -6 51 -12 57 -29 24 -177 91 -232 105 -32 9 -60 18 -63 21 -5
4 141 148 157 154 4 2 11 -28 15 -65 8 -75 19 -103 39 -103 15 0 26 30 26 73
0 33 12 34 75 7 57 -24 101 -26 109 -4 3 9 3 20 0 25 -9 16 -102 59 -126 59
-37 0 -68 27 -68 60 0 56 6 60 86 60 57 0 76 4 80 15 12 31 -15 45 -91 45 -73
0 -73 0 -84 31 -24 70 -16 77 99 81 62 3 65 4 65 28 0 22 -5 26 -45 32 -25 3
-110 7 -190 7 l-146 1 -52 60 c-43 48 -59 60 -83 60 -17 0 -32 -6 -35 -15z
m-116 -206 l3 -56 -88 -5 c-48 -3 -94 -3 -100 0 -9 3 -13 25 -13 63 l0 60 98
-3 97 -3 3 -56z m316 40 c128 -23 121 -19 124 -76 3 -59 4 -59 -118 -69 -68
-6 -77 -4 -94 15 -16 18 -30 21 -98 21 l-78 0 0 60 0 60 102 0 c56 0 129 -5
162 -11z m-50 -184 c33 -30 59 -31 127 -5 92 37 77 5 -42 -89 l-90 -70 -37 24
c-20 13 -55 27 -77 31 -57 9 -75 29 -75 80 l0 43 83 4 c45 1 82 4 83 5 1 1 13
-9 28 -23z m-121 -175 c26 -11 49 -25 53 -31 9 -15 -25 -48 -78 -75 l-48 -24
0 75 c0 85 2 86 73 55z m207 -188 c127 -41 159 -56 147 -69 -5 -4 -125 -9
-268 -11 -332 -4 -337 4 -69 97 30 10 60 19 65 20 6 0 63 -16 125 -37z m184
-175 c6 -24 6 -41 0 -47 -15 -15 -274 -33 -409 -28 -130 5 -165 16 -165 51 1
52 1 52 277 57 142 3 265 6 273 5 9 0 19 -16 24 -38z"/>
<path d="M16105 11572 c-27 -30 -33 -41 -18 -34 21 11 69 70 62 76 -2 1 -22
-18 -44 -42z"/>
<path d="M1385 11573 c-4 -10 -13 -45 -19 -77 l-11 -59 -60 -18 c-33 -9 -107
-31 -164 -48 -57 -18 -106 -30 -108 -27 -3 3 0 21 7 40 27 82 11 172 -24 136
-16 -17 -53 -112 -67 -176 -11 -43 -14 -46 -109 -87 -30 -13 -61 -31 -69 -40
-11 -15 -10 -18 14 -27 20 -8 38 -7 61 0 56 19 65 12 48 -35 -20 -54 -30 -316
-15 -372 20 -73 69 -134 136 -167 53 -26 73 -30 165 -34 58 -2 130 1 160 6 30
6 97 18 149 27 52 9 103 21 113 26 10 6 44 14 75 19 60 10 101 39 88 60 -10
16 -95 8 -196 -19 -175 -45 -245 -56 -360 -56 -111 0 -117 1 -164 30 -27 17
-63 50 -79 73 -28 39 -31 51 -34 143 -4 84 0 120 23 217 15 65 33 122 39 129
15 17 352 120 361 111 2 -2 -3 -35 -11 -73 -8 -39 -19 -112 -24 -164 -6 -51
-15 -112 -21 -135 -16 -62 -16 -87 3 -99 13 -9 21 -7 36 6 20 18 21 25 42 212
12 118 39 255 53 273 24 31 153 -7 204 -60 67 -71 69 -116 13 -281 -22 -66
-40 -134 -40 -153 0 -29 3 -34 23 -34 27 0 35 14 79 140 23 64 31 109 35 186
6 114 0 133 -63 197 -53 54 -86 68 -165 70 -84 3 -95 11 -79 64 16 53 10 87
-16 91 -13 2 -24 -4 -29 -15z"/>
<path d="M8945 11481 c2 -5 -18 -6 -44 -3 l-49 4 -189 -192 c-103 -105 -200
-210 -216 -232 -29 -44 -44 -89 -49 -153 l-3 -40 203 -5 c229 -6 227 -5 217
-80 -12 -93 -21 -84 85 -90 52 -3 101 -2 107 3 8 6 12 34 12 78 -1 37 2 73 6
79 4 6 27 10 53 8 l47 -3 -3 85 c-4 87 -18 118 -49 105 -7 -3 -20 -8 -28 -11
-27 -11 -35 43 -35 230 0 131 -4 187 -12 198 -13 15 -62 33 -53 19z m-117
-314 c-2 -69 -8 -110 -17 -120 -11 -14 -33 -17 -113 -17 l-99 0 19 28 c46 64
184 212 198 212 13 0 15 -16 12 -103z"/>
<path d="M8058 11440 c-171 -45 -253 -146 -329 -405 -27 -93 -31 -118 -27
-191 5 -95 21 -122 93 -155 80 -37 265 -17 347 37 84 54 150 176 198 365 52
201 30 303 -74 350 -51 23 -120 23 -208 -1z m105 -107 c29 -33 30 -68 2 -175
-14 -56 -36 -130 -48 -162 -28 -76 -98 -154 -148 -165 -57 -13 -64 -3 -63 86
1 132 77 347 141 403 39 35 91 40 116 13z"/>
<path d="M7564 11425 c-27 -13 -101 -64 -164 -111 -63 -48 -169 -126 -235
-175 -66 -48 -132 -100 -146 -115 -45 -49 -121 -173 -113 -185 5 -9 55 -10
191 -5 l184 8 -15 -36 c-8 -20 -26 -51 -40 -69 -15 -19 -26 -37 -26 -41 0 -4
47 -5 106 -4 l105 3 24 60 c29 72 57 98 95 90 16 -4 31 -1 38 7 11 14 62 144
62 159 0 5 -14 9 -30 9 -17 0 -33 6 -36 13 -8 21 21 97 97 258 38 81 69 150
69 153 0 3 -26 6 -58 6 -42 0 -72 -7 -108 -25z m-111 -237 c-40 -98 -71 -155
-88 -162 -9 -3 -50 -6 -91 -6 -83 0 -92 9 -46 52 38 36 232 178 242 178 5 0
-3 -28 -17 -62z"/>
<path d="M17480 10691 c-5 -11 -10 -67 -10 -124 l0 -105 -85 -7 c-72 -6 -85
-9 -85 -25 0 -33 22 -40 101 -31 40 5 77 6 82 4 4 -2 7 -24 7 -48 0 -57 34
-229 54 -277 9 -21 16 -45 16 -55 0 -10 -66 -84 -146 -164 -104 -104 -145
-152 -141 -163 4 -9 13 -16 22 -16 8 0 76 55 151 123 75 67 139 123 144 125 5
2 21 -16 36 -40 78 -127 221 -218 283 -179 25 16 4 37 -57 59 -75 28 -139 84
-177 156 l-30 57 36 32 c19 18 77 67 128 111 92 79 109 108 65 114 -23 3 -102
-56 -191 -141 l-52 -51 -16 37 c-24 59 -53 196 -57 272 l-3 70 60 2 c136 6
275 36 275 59 0 4 -14 33 -32 65 -34 66 -88 119 -119 119 -36 0 -33 -28 10
-85 39 -52 58 -84 50 -86 -2 0 -53 -4 -114 -8 -60 -5 -118 -12 -127 -16 -17
-7 -18 2 -18 102 0 108 -7 133 -37 133 -7 0 -17 -9 -23 -19z"/>
<path d="M8056 10620 c-15 -71 20 -212 113 -458 78 -204 171 -383 325 -622
103 -159 253 -337 331 -393 23 -16 18 -7 -21 38 -132 154 -329 453 -466 706
-133 246 -238 518 -262 681 -11 75 -13 79 -20 48z"/>
<path d="M17064 10600 c-7 -7 -8 -28 -3 -58 4 -26 8 -73 8 -104 l1 -58 -72 0
c-81 0 -102 -8 -96 -36 3 -16 14 -19 80 -22 45 -2 80 -8 85 -15 5 -7 15 -42
21 -78 23 -130 17 -145 -83 -179 -33 -11 -69 -30 -82 -42 -21 -19 -21 -23 -8
-38 14 -16 19 -16 73 2 31 10 69 25 84 33 15 9 29 11 32 7 3 -5 8 -47 12 -93
7 -90 15 -109 46 -109 20 0 20 5 17 122 l-4 122 34 7 c42 9 111 38 133 57 14
12 15 18 7 29 -15 17 -48 17 -92 -2 -20 -8 -52 -15 -70 -15 l-34 0 -8 81 c-5
63 -4 84 7 91 7 4 56 7 109 6 97 -1 119 3 119 26 0 31 -34 43 -110 40 -129 -5
-125 -8 -139 99 -7 51 -17 102 -22 115 -9 23 -28 29 -45 12z"/>
<path d="M7946 10503 c4 -15 17 -54 30 -85 13 -32 51 -135 85 -230 34 -95 65
-180 71 -188 7 -12 8 -10 3 5 -3 11 -26 85 -51 165 -58 190 -119 353 -133 358
-8 3 -10 -5 -5 -25z"/>
<path d="M1196 10298 c-14 -160 -23 -323 -19 -335 3 -7 14 -13 24 -13 29 0 40
41 38 139 -1 52 3 95 10 109 7 12 52 43 104 69 87 45 96 47 173 48 91 0 115
-12 140 -72 18 -41 18 -180 1 -213 -12 -23 -18 -25 -82 -23 -73 1 -91 -8 -75
-38 15 -27 61 -53 70 -39 4 7 16 10 26 8 32 -6 -43 -38 -91 -38 -60 0 -309
-67 -342 -93 -17 -12 -17 -46 0 -53 7 -2 74 14 148 36 185 57 283 58 326 1 27
-35 14 -62 -64 -143 -43 -44 -86 -84 -96 -89 -12 -7 -52 2 -143 31 -128 40
-154 41 -154 5 0 -18 79 -55 116 -55 17 0 38 -6 48 -13 23 -17 12 -26 -74 -68
-45 -22 -60 -34 -58 -47 6 -29 66 -19 156 26 45 23 93 42 106 42 12 0 72 -20
132 -45 60 -25 115 -43 121 -40 7 2 13 13 13 24 0 26 -53 58 -121 72 -30 7
-57 15 -61 18 -4 4 22 38 58 76 71 76 103 132 104 181 0 24 -9 40 -40 68 -22
20 -46 36 -54 36 -7 0 -19 7 -26 15 -10 12 -2 20 45 50 74 48 85 74 85 212 0
124 -10 153 -74 202 -37 30 -43 31 -135 31 -91 0 -101 -2 -171 -37 -41 -20
-79 -37 -84 -38 -5 0 -14 16 -21 35 -7 22 -19 36 -32 38 -18 3 -21 -4 -27 -80z"/>
<path d="M783 10283 c-18 -7 -16 -27 5 -45 9 -9 63 -30 120 -48 156 -50 157
-70 8 -154 -87 -49 -119 -77 -130 -112 -16 -54 103 -124 242 -144 71 -10 88
-4 78 28 -7 20 -44 34 -145 52 -58 11 -101 33 -101 52 0 14 19 29 115 85 100
58 122 78 130 115 13 59 -57 114 -198 155 -79 23 -101 26 -124 16z"/>
<path d="M1015 9569 c-38 -10 -99 -24 -135 -30 -76 -13 -100 -24 -100 -44 0
-31 103 -32 215 -3 33 9 72 19 87 22 32 7 50 52 27 67 -17 10 -8 11 -94 -12z"/>
<path d="M6713 9353 c-4 -32 -7 -173 -6 -313 4 -346 19 -438 165 -975 l22 -80
-37 -135 c-60 -227 -103 -594 -117 -1004 -5 -149 -14 -314 -20 -366 -21 -184
-161 -537 -251 -635 -52 -56 -169 -154 -769 -642 -535 -436 -925 -696 -1238
-825 -71 -29 -88 -42 -208 -162 -72 -72 -151 -161 -177 -197 -56 -79 -63 -101
-10 -32 20 26 95 110 167 186 145 152 106 127 456 295 106 50 240 127 375 213
296 191 494 341 918 698 115 97 245 205 290 241 94 74 172 153 259 260 99 122
128 170 138 236 5 33 23 100 40 149 17 50 35 110 41 135 6 25 14 216 19 425 8
393 29 640 70 860 36 186 71 271 94 223 20 -42 -11 107 -59 282 -102 375 -129
565 -140 975 -3 132 -8 241 -10 243 -2 2 -7 -23 -12 -55z"/>
<path d="M1197 9195 c-25 -19 -59 -51 -76 -72 l-31 -38 -168 -5 -167 -5 0 -25
c0 -25 1 -25 100 -27 116 -3 145 -8 145 -26 0 -8 -56 -85 -125 -173 -129 -164
-149 -204 -100 -204 18 0 35 14 66 55 23 30 45 55 50 55 13 0 11 -39 -6 -159
-11 -79 -12 -114 -4 -144 6 -22 8 -55 4 -73 -3 -19 -1 -51 4 -71 6 -21 13 -51
16 -66 4 -22 11 -28 28 -25 21 3 22 7 20 79 l-3 76 179 7 c224 8 272 23 236
72 -12 17 -18 17 -72 5 -32 -7 -124 -15 -205 -18 l-148 -6 0 85 0 86 206 0
c222 0 250 6 205 43 -20 16 -41 19 -135 20 -61 1 -142 4 -181 8 -61 5 -70 9
-73 27 -4 30 24 49 118 78 318 96 483 86 546 -36 21 -40 19 -314 -2 -412 -9
-41 -14 -82 -11 -90 12 -30 38 -17 59 32 17 37 23 79 30 201 15 271 -6 343
-114 395 -98 46 -157 52 -288 27 -128 -25 -243 -54 -308 -78 -23 -9 -45 -13
-48 -10 -8 8 84 132 133 179 48 47 84 61 109 44 23 -16 523 -30 560 -16 28 11
32 45 7 55 -10 4 -103 11 -206 16 -103 4 -191 11 -196 13 -5 3 -43 6 -85 8
-42 1 -76 4 -76 8 0 4 12 17 26 31 46 42 70 109 40 109 -7 0 -34 -16 -59 -35z
m-300 -882 c-3 -10 -5 -4 -5 12 0 17 2 24 5 18 2 -7 2 -21 0 -30z"/>
<path d="M9863 9154 c10 -61 70 -173 132 -244 49 -56 56 -69 51 -95 -13 -65
-18 -155 -10 -155 5 0 17 30 26 68 9 37 20 76 23 88 5 16 -4 33 -34 68 -49 57
-115 166 -146 243 -29 70 -51 84 -42 27z"/>
<path d="M10097 8228 c8 -16 136 -177 182 -227 29 -33 -41 70 -85 124 -54 66
-106 121 -97 103z"/>
<path d="M1189 7913 c-83 -139 -179 -328 -179 -352 0 -10 7 -24 15 -31 23 -19
40 1 90 100 24 47 49 91 57 97 7 6 54 22 103 36 125 35 135 37 135 24 1 -23
29 -213 39 -257 6 -25 10 -133 11 -241 0 -228 0 -229 -88 -229 -29 0 -52 -4
-52 -8 0 -5 13 -20 28 -35 20 -19 39 -27 63 -27 41 0 60 13 88 60 18 31 21 51
21 171 0 136 4 157 24 140 13 -10 226 -32 238 -25 4 3 8 11 8 18 0 28 -37 45
-124 56 -75 9 -92 9 -112 -5 -13 -8 -26 -15 -29 -15 -3 0 -5 22 -5 50 0 47
-29 247 -49 333 -11 48 -5 50 92 45 146 -7 186 -56 130 -159 -26 -49 -27 -52
-9 -65 39 -28 80 19 97 110 12 69 2 104 -39 128 -41 24 -181 61 -211 55 -147
-27 -241 -47 -264 -56 -61 -24 -61 -14 -2 83 47 78 50 106 11 106 -18 0 -36
-22 -87 -107z"/>
<path d="M9587 7668 c-7 -402 -22 -519 -113 -913 -45 -192 -88 -344 -164 -574
-33 -101 -62 -195 -65 -208 -2 -13 -45 -103 -94 -199 -50 -96 -89 -174 -87
-174 9 0 118 192 161 285 51 109 199 544 245 720 64 249 84 347 116 580 19
131 32 805 16 805 -5 0 -11 -125 -15 -322z"/>
<path d="M1004 7869 c-57 -31 -225 -139 -251 -162 -13 -11 -23 -29 -23 -40 0
-17 5 -19 43 -14 23 3 51 9 63 12 20 6 21 2 28 -115 4 -67 12 -134 18 -149 5
-14 12 -75 15 -136 6 -115 14 -145 39 -145 28 0 36 42 26 126 -6 43 -18 142
-27 219 -9 77 -20 158 -25 181 -13 59 -4 80 54 115 72 46 96 69 96 95 0 33
-12 36 -56 13z"/>
<path d="M10475 7755 c34 -56 93 -121 168 -184 41 -34 88 -81 103 -104 16 -23
37 -53 48 -67 l19 -25 -7 28 c-5 20 -3 27 9 27 8 0 15 3 15 8 0 4 -55 54 -123
112 -67 58 -151 134 -186 170 -39 40 -57 53 -46 35z"/>
<path d="M1195 7540 c-20 -22 -124 -340 -125 -381 0 -15 7 -32 15 -39 19 -15
55 -3 55 19 0 9 15 62 33 117 19 54 40 124 47 154 7 30 20 67 28 82 15 25 14
29 -3 48 -23 25 -27 25 -50 0z"/>
<path d="M10385 7350 c9 -16 18 -30 21 -30 2 0 -2 14 -11 30 -9 17 -18 30 -21
30 -2 0 2 -13 11 -30z"/>
<path d="M10463 7203 c29 -60 84 -166 123 -238 40 -71 94 -175 122 -230 48
-95 81 -149 82 -132 0 12 -145 299 -198 388 -27 46 -77 137 -111 202 -35 64
-64 117 -66 117 -2 0 19 -48 48 -107z"/>
<path d="M10931 7230 c24 -30 76 -88 114 -129 112 -118 631 -591 816 -742 227
-187 699 -633 819 -774 222 -263 501 -707 611 -971 176 -427 293 -923 329
-1399 10 -128 13 -335 4 -335 -3 0 -22 13 -42 30 -52 41 -150 83 -291 125
-137 40 -350 141 -391 186 l-26 29 4 -36 c5 -41 8 -40 -71 -11 -64 23 -231
158 -273 220 -30 45 -84 199 -84 242 0 17 -8 44 -18 60 -31 52 -88 206 -116
315 -39 150 -89 285 -154 414 -63 126 -77 146 -104 146 -19 0 -19 -1 1 -28 24
-34 37 -82 23 -82 -5 0 -32 18 -58 40 -44 37 -123 70 -163 70 -9 0 11 -14 43
-31 202 -104 267 -186 306 -384 12 -59 30 -132 41 -162 23 -68 43 -215 34
-251 -15 -58 -14 -256 1 -315 12 -47 13 -66 3 -94 -9 -27 -8 -49 1 -94 8 -37
10 -88 7 -132 -4 -39 -11 -126 -16 -193 -6 -66 -15 -133 -21 -148 -5 -15 -10
-47 -10 -72 0 -46 -51 -349 -100 -595 -51 -252 -120 -492 -274 -943 -112 -327
-214 -577 -358 -876 -83 -170 -122 -260 -114 -260 14 0 102 150 175 297 131
263 211 453 316 748 29 83 86 236 125 340 86 229 196 647 225 855 3 25 14 74
24 110 20 69 41 210 41 276 0 45 14 74 29 59 5 -6 27 -41 49 -80 22 -38 61
-108 87 -155 53 -95 101 -160 118 -160 6 0 1 10 -11 23 -11 12 -30 44 -41 71
-12 26 -30 60 -40 75 -10 14 -51 86 -90 160 -64 119 -72 140 -69 180 2 37 6
46 21 44 10 0 16 4 14 10 -17 44 -28 126 -20 141 9 16 13 15 42 -10 l33 -28
-19 40 c-45 89 -76 192 -69 229 4 20 13 38 21 41 12 5 12 9 -1 29 -18 28 -29
174 -17 229 l9 40 22 -38 c12 -20 34 -74 48 -119 15 -45 39 -107 54 -137 15
-30 53 -120 85 -199 57 -145 209 -458 240 -496 9 -11 -31 74 -89 190 -58 115
-103 212 -100 214 12 13 92 -102 200 -289 42 -74 95 -165 116 -201 21 -36 38
-71 38 -76 0 -12 -97 -57 -180 -85 -53 -17 -53 -18 -13 -12 23 3 71 14 105 25
35 10 70 19 79 19 37 0 345 152 478 237 l85 53 33 -32 c18 -17 35 -29 38 -27
3 3 -6 16 -20 29 -30 28 -32 46 -6 60 29 15 51 12 52 -7 0 -10 11 7 25 36 24
54 25 59 21 265 -5 250 -18 393 -58 616 -88 486 -186 805 -354 1156 -87 181
-187 340 -368 584 -55 74 -112 151 -126 170 -45 62 -441 450 -581 568 -74 64
-169 147 -210 186 -83 78 -322 288 -440 387 -41 34 -144 126 -229 203 -85 78
-182 165 -215 194 -34 29 -92 85 -130 125 -60 63 -63 65 -25 17z m1442 -3437
c25 -49 29 -83 12 -89 -32 -13 -61 45 -48 95 7 29 20 27 36 -6z m310 -542 c20
-22 50 -68 67 -101 17 -33 32 -60 34 -60 8 0 -28 85 -47 113 l-20 29 33 -17
c18 -9 53 -37 79 -63 28 -28 39 -36 28 -19 -22 34 -7 35 48 4 42 -24 70 -62
162 -217 59 -100 172 -270 180 -270 5 0 -1 11 -47 80 -46 69 -230 376 -230
384 0 3 21 -5 48 -20 40 -22 61 -45 137 -161 91 -137 154 -218 162 -209 2 2
-45 79 -106 170 -61 91 -111 168 -111 170 0 6 179 -73 203 -89 31 -22 187
-217 187 -235 0 -13 -243 -163 -303 -188 l-61 -24 -29 33 -29 34 26 -37 26
-37 -65 -32 c-36 -17 -67 -30 -69 -28 -1 2 -50 94 -108 204 -59 110 -131 245
-161 299 -54 100 -64 147 -26 123 33 -21 31 0 -5 58 -29 44 -76 146 -76 163 0
10 42 -23 73 -57z m746 -315 c80 -60 114 -101 107 -130 -3 -14 -11 -26 -16
-26 -10 0 -121 133 -139 168 -16 30 -7 28 48 -12z"/>
<path d="M9729 7029 c-12 -24 -57 -149 -99 -278 -43 -130 -88 -258 -100 -285
-37 -87 -14 -59 30 36 43 94 204 558 196 566 -3 2 -14 -15 -27 -39z"/>
<path d="M1358 6795 c-3 -3 -126 -9 -274 -14 -148 -5 -277 -12 -286 -16 -20
-8 -24 -44 -5 -46 6 -1 69 0 140 1 l127 2 0 -31 c0 -48 -27 -68 -107 -76 -95
-9 -110 -19 -139 -90 -51 -126 -24 -225 69 -256 64 -21 74 -32 59 -65 -7 -14
-24 -41 -37 -59 -22 -28 -33 -33 -81 -37 -30 -3 -59 -9 -64 -14 -18 -18 8 -35
56 -37 l48 -2 4 -55 c3 -61 24 -103 63 -132 53 -40 294 -31 496 18 79 19 99
15 112 -19 12 -30 39 -53 51 -41 5 5 10 29 12 54 3 43 5 46 53 71 34 17 50 32
50 45 0 21 -30 25 -92 11 -32 -6 -33 -5 -46 41 l-14 47 103 5 c56 3 106 9 110
13 13 13 -10 40 -39 48 -14 4 -43 3 -64 -2 -21 -5 -57 -9 -79 -9 -39 0 -42 2
-46 31 -4 27 0 35 36 60 109 75 128 105 130 210 1 59 -2 71 -24 94 -40 43 -96
66 -194 80 -188 28 -190 29 -161 84 l16 31 182 -6 c155 -5 185 -4 202 9 16 13
18 19 9 34 -10 16 -30 18 -191 21 -98 1 -182 0 -185 -3z m-105 -94 c-2 -41
-15 -51 -70 -51 -41 0 -43 1 -43 29 0 55 8 62 64 59 l51 -3 -2 -34z m212 -127
c97 -18 159 -43 169 -69 11 -29 6 -105 -8 -133 -8 -15 -26 -38 -40 -51 -23
-22 -40 -26 -175 -37 -82 -6 -159 -10 -172 -8 -13 2 -83 8 -154 13 -91 6 -141
14 -165 26 -63 31 -70 43 -70 108 0 52 3 62 29 86 28 26 89 51 125 51 13 0 16
-12 16 -70 0 -62 2 -70 19 -70 26 0 36 16 51 80 16 68 39 90 92 90 40 0 40 0
33 -32 -27 -123 -26 -141 8 -136 12 2 23 14 28 28 3 14 12 44 18 68 7 24 21
52 31 62 21 21 17 21 165 -6z m0 -367 c8 -12 15 -31 15 -43 0 -21 -4 -22 -192
-29 -305 -11 -321 -7 -279 62 l20 32 211 -1 c203 0 211 -1 225 -21z m35 -163
c8 -36 8 -60 2 -66 -13 -13 -215 -58 -260 -58 -20 0 -62 -5 -94 -12 -46 -10
-71 -9 -120 1 -80 16 -98 32 -98 87 0 67 22 77 183 81 73 2 173 7 222 12 167
15 152 19 165 -45z"/>
<path d="M11570 6112 c0 -6 9 -33 19 -59 29 -74 409 -843 416 -843 3 0 4 3 2
8 -2 4 -12 25 -21 47 -10 22 -31 67 -46 100 -15 33 -31 71 -35 85 -6 21 -321
657 -331 669 -2 2 -4 -1 -4 -7z"/>
<path d="M7227 5674 c-4 -4 -3 -12 0 -18 4 -6 8 -16 9 -22 5 -31 74 -204 134
-334 243 -530 499 -888 801 -1117 80 -61 164 -109 204 -118 24 -6 18 0 -25 27
-113 69 -179 124 -308 257 -247 252 -389 466 -628 942 -45 92 -104 215 -129
275 -52 122 -49 116 -58 108z"/>
<path d="M1297 5612 c-40 -44 -117 -258 -117 -324 0 -59 52 -35 70 32 6 21 16
43 24 49 31 26 190 71 252 71 59 0 63 -2 97 -39 43 -48 57 -93 57 -187 0 -84
-34 -293 -61 -379 -11 -33 -22 -90 -26 -127 -5 -58 -4 -68 10 -68 18 0 57 46
57 67 0 7 9 46 20 86 33 124 52 248 57 378 7 159 -8 219 -71 284 l-43 45 -90
0 c-72 0 -104 -5 -157 -25 -95 -36 -101 -29 -60 60 25 57 28 85 8 92 -6 2 -18
-5 -27 -15z"/>
<path d="M836 5542 c-19 -4 -21 -33 -4 -50 7 -7 35 -12 62 -12 28 0 76 -7 106
-16 108 -32 139 -29 124 11 -13 33 -85 59 -180 64 -50 3 -98 5 -108 3z"/>
<path d="M886 5297 c-50 -13 -92 -29 -97 -37 -17 -33 -41 -245 -37 -324 6
-117 34 -171 107 -208 136 -69 317 -10 353 115 6 24 11 96 10 164 -1 121 -1
123 -37 188 -30 54 -46 70 -85 90 -68 34 -112 37 -214 12z m199 -73 c54 -42
68 -70 86 -175 11 -69 11 -84 -6 -145 -12 -46 -29 -79 -51 -103 -32 -35 -35
-36 -117 -39 -106 -5 -140 10 -168 74 -15 33 -19 61 -17 111 l3 68 105 0 c94
0 105 2 108 19 7 32 -14 40 -94 37 -106 -3 -113 0 -107 52 10 71 20 86 75 112
77 36 124 33 183 -11z"/>
<path d="M12036 5147 c3 -10 9 -15 12 -12 3 3 0 11 -7 18 -10 9 -11 8 -5 -6z"/>
<path d="M12052 5109 c33 -80 130 -306 168 -389 27 -58 63 -140 80 -183 18
-43 34 -76 36 -74 5 5 -34 114 -103 287 -59 149 -157 355 -173 365 -9 6 -12 4
-8 -6z"/>
<path d="M1295 5086 c-17 -12 -17 -16 -5 -31 8 -9 59 -39 114 -67 56 -27 105
-54 111 -59 5 -5 22 -9 38 -9 26 0 28 3 25 33 -3 27 -11 36 -53 59 -39 21
-197 88 -209 88 -1 0 -11 -6 -21 -14z"/>
<path d="M9955 4958 c-34 -94 -71 -212 -105 -338 -105 -391 -127 -464 -255
-865 -93 -292 -119 -369 -172 -515 -54 -148 -242 -618 -275 -685 l-29 -60 35
39 c40 44 108 173 154 291 17 44 67 172 110 285 44 113 85 223 92 245 6 22 24
74 40 115 61 163 340 1096 340 1136 0 6 23 84 50 173 28 89 50 169 50 177 0
17 -29 19 -35 2z"/>
<path d="M8360 4782 c0 -5 12 -19 27 -33 l26 -24 -23 33 c-25 33 -30 38 -30
24z"/>
<path d="M8421 4705 c21 -30 124 -148 214 -245 101 -108 287 -325 341 -397 66
-89 133 -205 156 -271 24 -72 43 -84 22 -15 -42 138 -185 353 -324 488 -29 28
-85 91 -126 140 -71 87 -311 341 -283 300z"/>
<path d="M11095 4649 c-59 -56 -142 -167 -158 -212 -13 -34 10 -7 48 57 21 36
73 99 115 141 93 90 89 101 -5 14z"/>
<path d="M1182 4438 c-6 -8 -15 -26 -21 -41 l-11 -27 -174 0 c-145 0 -177 -3
-190 -16 -20 -19 -20 -29 -1 -47 11 -11 58 -16 195 -22 142 -6 184 -11 196
-23 25 -24 -1 -40 -91 -57 -79 -14 -225 -51 -232 -59 -2 -2 -16 -34 -31 -72
-20 -53 -27 -91 -30 -165 -3 -97 -3 -97 29 -133 44 -51 82 -68 167 -76 114
-11 112 -14 -46 -109 -147 -88 -167 -104 -159 -125 8 -21 32 -20 85 4 50 23
244 140 284 172 15 12 31 19 34 15 3 -3 8 -51 10 -107 3 -110 6 -120 34 -120
27 0 31 21 24 128 -3 53 -1 102 3 109 5 7 58 16 135 21 110 8 133 13 173 36
52 31 88 80 110 151 19 64 19 89 -1 155 -33 110 -121 161 -320 183 -117 14
-149 26 -125 50 9 9 72 12 246 12 210 0 236 2 252 18 16 16 16 18 0 35 -16 15
-44 17 -240 20 -122 1 -232 4 -244 7 -18 4 -22 13 -25 47 -3 43 -17 58 -36 36z
m223 -288 c134 -22 197 -72 211 -168 15 -99 -37 -190 -119 -210 -89 -22 -150
-32 -191 -32 l-43 0 -7 61 c-3 34 -6 79 -6 100 l0 39 53 0 c28 0 76 3 105 6
41 5 52 11 52 25 0 23 -54 39 -138 39 -58 0 -63 2 -72 26 -11 29 -13 78 -3
112 6 26 15 27 158 2z m-225 -32 c0 -18 3 -49 6 -68 l6 -35 -154 3 c-84 2
-154 5 -155 6 -2 2 2 16 8 33 8 25 21 35 72 54 69 26 111 35 175 38 41 1 42 0
42 -31z m-165 -158 c39 -5 93 -10 122 -10 l52 0 0 -106 0 -106 -47 5 c-168 21
-205 28 -240 46 -46 24 -52 35 -52 106 0 80 5 88 54 80 23 -3 73 -10 111 -15z"/>
<path d="M10904 4296 c-4 -15 -11 -23 -18 -19 -6 3 -8 3 -4 -2 4 -4 -2 -30
-12 -59 -24 -64 -70 -282 -70 -332 0 -20 -9 -85 -19 -143 -11 -58 -29 -171
-41 -251 -84 -559 -166 -829 -305 -1009 -46 -60 -179 -191 -195 -191 -17 0
-20 18 -31 152 -11 141 -37 266 -70 329 -12 25 -34 46 -59 59 -55 28 -63 25
-14 -5 71 -42 106 -166 120 -427 3 -67 11 -124 18 -134 11 -15 19 -12 77 32
35 27 100 85 144 129 66 66 90 100 137 190 93 181 131 324 202 755 19 118 40
262 46 320 6 58 15 123 20 145 4 22 11 72 15 110 9 89 41 256 61 318 9 27 14
51 11 54 -4 3 -9 -6 -13 -21z"/>
<path d="M4520 4150 c-19 -4 -51 -14 -70 -22 -46 -20 -185 -133 -284 -231 -76
-75 -163 -143 -172 -135 -2 2 1 20 6 39 6 18 10 45 10 58 0 19 -3 21 -14 11
-18 -14 -33 -59 -41 -120 -4 -34 -13 -52 -38 -73 -28 -24 -30 -30 -19 -47 18
-30 15 -58 -24 -192 -20 -67 -48 -180 -63 -250 l-28 -128 76 0 c121 1 211 16
345 60 68 22 154 43 190 47 57 5 72 2 118 -20 29 -14 74 -34 100 -45 53 -23
78 -54 175 -217 36 -60 87 -141 113 -180 25 -38 70 -108 98 -155 28 -47 89
-133 136 -191 66 -84 101 -118 167 -162 46 -31 111 -66 144 -78 33 -11 97 -41
143 -66 90 -48 240 -103 281 -102 15 0 -19 16 -79 39 -157 57 -211 82 -348
157 -199 108 -302 216 -449 468 -38 66 -81 138 -95 161 -14 22 -43 74 -63 115
-21 40 -54 99 -75 129 -21 30 -56 92 -79 138 -23 45 -43 82 -46 82 -5 0 3 -21
34 -94 12 -27 20 -51 17 -53 -2 -2 -35 17 -72 42 -66 44 -71 50 -126 158 -31
62 -57 108 -57 102 0 -5 21 -55 48 -110 27 -55 48 -101 47 -102 -1 -1 -21 3
-45 9 -52 13 -180 -7 -327 -52 -112 -35 -265 -63 -316 -58 l-35 3 47 173 c26
95 57 198 69 228 11 31 21 68 21 82 0 15 9 45 19 67 21 46 155 179 173 173 13
-4 38 -71 97 -261 32 -102 96 -247 125 -282 16 -19 16 -18 3 10 -25 51 -187
519 -187 538 0 23 18 57 29 57 5 0 12 -12 15 -26 10 -38 185 -398 191 -392 8
7 -16 62 -107 250 -59 120 -79 173 -75 190 10 38 74 105 160 168 133 98 209
100 418 12 52 -22 101 -42 109 -45 8 -4 81 -42 162 -84 135 -72 236 -136 342
-220 23 -18 63 -44 90 -59 112 -59 179 -158 297 -434 29 -69 66 -147 82 -173
16 -26 26 -51 23 -54 -13 -14 -89 76 -163 192 -165 259 -195 305 -200 305 -2
0 4 -15 15 -32 11 -18 48 -87 82 -153 35 -66 78 -144 97 -172 33 -54 93 -168
93 -178 0 -4 -5 -3 -11 1 -6 4 1 -15 17 -42 86 -151 183 -308 227 -368 57 -80
147 -244 177 -323 11 -30 31 -113 45 -186 13 -73 36 -184 50 -247 13 -63 37
-169 51 -235 15 -66 44 -190 64 -275 21 -85 62 -254 90 -375 28 -121 85 -357
126 -525 41 -167 78 -324 81 -347 5 -37 9 -43 30 -43 30 0 34 -29 -53 325 -35
143 -87 359 -115 480 -28 121 -64 274 -79 340 -16 66 -39 158 -53 205 -14 47
-30 119 -36 160 -15 101 -35 201 -81 415 -58 271 -92 443 -102 515 -5 36 -16
94 -24 130 -34 156 -55 293 -61 402 l-6 116 109 -56 c147 -75 444 -163 420
-123 -3 5 -45 21 -93 36 -84 27 -299 108 -373 141 -35 16 -71 47 -310 271
-213 198 -297 271 -337 292 -37 19 -235 163 -279 203 -12 10 -66 43 -120 72
-55 29 -124 67 -154 84 -77 43 -216 97 -324 127 -93 26 -125 28 -186 15z
m1264 -716 c39 -40 83 -87 98 -106 14 -19 50 -47 80 -63 64 -34 125 -80 138
-104 7 -13 2 -27 -15 -54 -30 -44 -30 -52 -5 -138 11 -38 22 -90 24 -116 2
-26 20 -96 40 -154 35 -101 51 -211 24 -164 -6 11 -24 35 -40 53 -32 38 -85
139 -127 244 -16 40 -41 99 -56 131 -29 61 -27 79 5 59 17 -10 20 -10 19 5 -1
37 -38 104 -161 290 -163 244 -166 260 -24 117z"/>
<path d="M5050 3798 c0 -9 129 -243 252 -458 203 -353 258 -446 446 -755 107
-176 217 -357 244 -402 48 -83 74 -113 42 -50 -83 160 -228 420 -279 497 -34
52 -79 124 -100 160 -78 135 -223 388 -263 460 -23 41 -85 144 -139 227 -54
84 -122 192 -150 240 -29 49 -53 85 -53 81z"/>
<path d="M4734 3760 c8 -30 69 -160 73 -156 2 2 -14 41 -37 87 -22 46 -38 77
-36 69z"/>
<path d="M1435 3616 c-18 -13 -18 -16 -5 -29 8 -8 77 -47 154 -86 147 -76 171
-79 164 -22 -3 22 -19 34 -118 83 -134 65 -167 75 -195 54z"/>
<path d="M4701 3599 c-2 -21 218 -494 226 -486 1 2 -40 95 -92 208 -118 252
-134 286 -134 278z"/>
<path d="M4830 3544 c0 -6 7 -19 16 -30 14 -18 14 -18 3 6 -14 31 -19 36 -19
24z"/>
<path d="M4620 3527 c0 -24 283 -577 295 -577 2 0 -11 35 -29 78 -66 154 -266
529 -266 499z"/>
<path d="M12702 3375 c9 -11 35 -51 58 -90 23 -38 39 -59 35 -45 -10 34 -60
113 -88 136 -22 19 -22 19 -5 -1z"/>
<path d="M5160 3363 c0 -6 55 -121 123 -255 121 -240 208 -394 415 -738 58
-96 126 -210 151 -252 25 -42 47 -75 49 -73 6 6 -97 200 -160 301 -123 199
-311 531 -447 792 -102 196 -131 245 -131 225z"/>
<path d="M767 3174 c-15 -15 -6 -34 23 -49 22 -11 64 -15 175 -15 l145 0 0
-24 c0 -60 -12 -70 -111 -94 -52 -12 -110 -23 -129 -25 -39 -2 -38 0 -64 -127
-11 -49 -16 -125 -16 -218 0 -131 2 -147 24 -190 57 -111 172 -151 443 -152
197 -2 251 10 330 69 96 73 145 181 147 325 1 70 -3 88 -26 132 -46 87 -121
143 -233 174 l-60 17 -3 52 -3 53 58 -5 c32 -2 76 -9 98 -15 62 -18 170 -15
186 4 18 22 0 46 -42 57 -71 18 -927 46 -942 31z m521 -74 l52 0 0 -34 c0 -18
-6 -39 -14 -46 -8 -6 -50 -14 -92 -17 -71 -6 -77 -5 -71 11 4 10 10 30 13 44
11 51 13 54 37 48 12 -3 46 -6 75 -6z m162 -146 c104 -31 176 -96 206 -187 34
-102 -1 -264 -74 -340 -56 -59 -115 -80 -252 -87 -150 -9 -199 -5 -308 26
-163 46 -176 68 -170 288 5 181 22 251 68 273 34 16 118 38 124 32 3 -2 -4
-45 -15 -94 -24 -112 -25 -173 -3 -182 25 -9 49 10 52 43 6 66 44 214 58 225
14 11 149 7 161 -5 3 -3 -2 -26 -10 -53 -9 -26 -21 -81 -27 -122 -6 -41 -13
-78 -16 -83 -7 -12 15 -38 32 -38 7 0 18 8 23 18 9 16 30 116 46 213 4 30 37
89 49 89 1 0 26 -7 56 -16z"/>
<path d="M12500 3046 c0 -3 36 -80 80 -173 83 -172 199 -378 208 -369 2 3 -19
47 -49 98 -29 51 -93 173 -141 271 -75 152 -98 193 -98 173z"/>
<path d="M5217 2983 c43 -103 305 -573 319 -573 6 0 -29 67 -121 230 -45 80
-110 198 -144 263 -63 119 -83 147 -54 80z"/>
<path d="M8310 2907 c0 -3 9 -21 19 -39 28 -47 78 -195 112 -327 26 -103 85
-241 127 -296 l14 -20 -7 20 c-4 11 -15 47 -25 80 -9 33 -26 81 -38 106 -11
25 -34 97 -52 160 -47 166 -86 261 -120 294 -17 16 -30 26 -30 22z"/>
<path d="M12480 2906 c0 -11 159 -336 165 -336 8 0 -14 50 -87 194 -71 142
-78 155 -78 142z"/>
<path d="M9798 2860 c-69 -37 -119 -115 -286 -445 -90 -178 -184 -347 -218
-393 l-25 -32 -187 6 c-154 5 -195 9 -235 26 -27 10 -51 17 -54 14 -3 -2 0
-21 7 -41 15 -44 0 -268 -31 -465 -16 -105 -19 -175 -18 -440 0 -173 4 -337 8
-365 l7 -50 6 60 c4 33 12 89 17 125 5 36 15 148 21 250 6 102 16 226 23 275
6 50 12 160 12 245 1 133 4 164 23 217 12 34 22 72 22 83 0 55 1 55 216 49
110 -3 204 -2 211 3 24 19 129 209 264 478 127 254 147 288 206 351 69 73 71
80 11 49z"/>
<path d="M5179 2800 c22 -67 82 -188 152 -307 103 -175 241 -394 246 -389 3 2
-25 55 -62 117 -100 168 -196 342 -263 475 -75 147 -100 183 -73 104z"/>
<path d="M8215 2640 c10 -11 20 -20 23 -20 3 0 -3 9 -13 20 -10 11 -20 20 -23
20 -3 0 3 -9 13 -20z"/>
<path d="M8270 2595 c13 -14 26 -25 28 -25 3 0 -5 11 -18 25 -13 14 -26 25
-28 25 -3 0 5 -11 18 -25z"/>
<path d="M8590 2201 c16 -32 98 -119 125 -133 17 -9 -38 55 -118 137 -19 20
-19 20 -7 -4z"/>
<path d="M1396 2054 c-10 -26 -6 -58 9 -78 8 -11 15 -23 15 -28 0 -4 -81 -8
-179 -8 -181 0 -206 -5 -181 -35 9 -11 37 -15 111 -15 l99 0 -25 -37 c-64 -96
-85 -139 -85 -175 0 -33 6 -42 43 -69 l42 -31 115 4 c94 4 130 10 193 32 l79
28 43 -42 c36 -35 48 -41 69 -36 14 3 26 12 26 19 0 27 -193 237 -217 237 -20
0 -15 -51 7 -85 11 -16 20 -35 20 -41 0 -34 -290 -71 -341 -44 -28 15 -23 51
12 101 85 120 136 148 236 129 71 -13 243 -13 263 0 12 7 12 13 4 27 -10 15
-29 18 -137 21 l-127 3 -6 27 c-11 52 -15 60 -35 86 -23 29 -44 33 -53 10z"/>
<path d="M863 1795 c-28 -12 -35 -23 -59 -99 -24 -78 -26 -97 -22 -204 2 -68
10 -127 17 -140 20 -37 95 -66 154 -59 66 8 105 33 134 87 22 42 24 53 21 181
-3 132 -4 137 -32 173 -49 65 -143 92 -213 61z m154 -83 c12 -15 25 -46 29
-70 9 -59 -5 -211 -23 -245 -16 -32 -72 -60 -111 -55 -35 4 -68 54 -76 115 -7
59 16 202 41 243 32 55 100 61 140 12z"/>
<path d="M1407 1520 c-27 -5 -80 -18 -119 -30 -64 -19 -72 -20 -87 -6 -39 36
-67 11 -50 -46 5 -18 9 -98 10 -178 0 -160 12 -215 44 -215 17 0 20 7 20 45
l0 45 140 2 c77 1 146 2 153 2 8 1 12 10 10 24 -2 18 -10 22 -38 23 -19 0 -88
1 -152 2 l-118 2 0 51 0 50 118 -6 c64 -3 131 -8 147 -10 37 -6 58 7 53 31 -3
18 -16 19 -161 22 l-157 3 0 37 0 37 88 28 c73 23 104 28 195 27 60 0 117 -5
129 -11 53 -28 63 -155 23 -293 -29 -101 -30 -115 -9 -123 24 -9 41 15 68 101
20 60 26 99 26 165 0 79 -3 91 -29 133 -46 73 -80 91 -175 94 -45 2 -103 -1
-129 -6z"/>
<path d="M1785 781 c-32 -14 -72 -63 -84 -103 -34 -105 55 -207 172 -195 85 8
141 71 141 159 0 52 -19 86 -67 122 -30 22 -128 32 -162 17z m109 -93 c27 -43
30 -74 7 -97 -35 -35 -116 -20 -127 24 -6 24 11 76 29 87 26 17 76 8 91 -14z"/>
</g>
</svg>
